<svg width="61" height="61" viewBox="0 0 61 61" fill="none" xmlns="http://www.w3.org/2000/svg">
<path d="M6.09861 23.9367H7.2479C7.29159 18.5554 10.4382 13.6386 15.3055 11.5004C20.0674 9.40856 25.7313 10.3184 29.7354 13.8177C30.1677 14.1957 30.8128 14.1957 31.2454 13.8177C35.2495 10.3184 40.9135 9.40885 45.6753 11.5004C52.5518 14.5211 55.623 22.7234 52.5216 29.7846C49.659 36.3015 33.8795 47.9153 30.4906 50.3576C27.1014 47.9153 11.3221 36.3015 8.45956 29.7846C8.23218 29.2669 7.66875 29.0024 7.1378 29.1324C7.07369 29.1479 7.01016 29.1683 6.94778 29.1956C6.36768 29.4506 6.10379 30.1273 6.35877 30.7074C9.80949 38.5627 28.9955 52.1186 29.8104 52.6918C30.0059 52.8292 30.2367 52.9002 30.4702 52.9002C30.4788 52.9002 30.4874 52.9002 30.4963 52.9002C30.7352 52.9034 30.9715 52.8324 31.1713 52.6921C31.9862 52.1189 51.1722 38.5629 54.6229 30.7077C58.2335 22.4882 54.6339 12.9294 46.5986 9.39994C43.7967 8.16902 40.7171 7.78956 37.6921 8.30182C35.0725 8.74567 32.602 9.83459 30.4911 11.4691C28.3803 9.83487 25.9095 8.74567 23.2899 8.30182C20.2652 7.78928 17.1853 8.1693 14.3833 9.39994C11.3563 10.7295 8.8669 12.9452 7.18379 15.8075C5.57571 18.5425 4.81508 21.6678 4.97434 24.8581C5.07926 24.3326 5.54294 23.9367 6.09919 23.9367H6.09861Z" fill="#0CD5FF"/>
<path d="M6.09836 26.2314H11.2072C11.5113 26.2314 11.8034 26.1104 12.0184 25.8954L12.6971 25.2167L15.2883 22.6258L16.1938 25.2871L18.7735 32.8699C18.9207 33.3022 19.3105 33.6063 19.7659 33.6437C19.7975 33.6463 19.8288 33.6474 19.8602 33.6474C20.2804 33.6474 20.6705 33.4166 20.8712 33.0418L24.931 25.4625L27.7927 20.1199L30.127 25.5668L30.4184 26.247C30.5993 26.6687 31.0141 26.9423 31.4731 26.9423H38.4827C38.3904 26.6138 38.3401 26.2679 38.3401 25.91C38.3401 25.4679 38.4163 25.0431 38.5551 24.6475H32.2298L28.9624 17.0234C28.7888 16.618 28.3981 16.3481 27.9577 16.3291C27.5159 16.3107 27.1048 16.545 26.8964 16.9337L22.3556 25.4107L20.0956 29.6304L18.6347 25.336L16.8674 20.1412C16.7397 19.7661 16.4272 19.4832 16.0412 19.3932C15.6554 19.3035 15.2501 19.4191 14.9698 19.6994L10.7326 23.9366H6.09893C5.54269 23.9366 5.07929 24.3324 4.97408 24.8579C4.95942 24.9309 4.95166 25.0065 4.95166 25.0842C4.95166 25.7177 5.46536 26.2314 6.09893 26.2314H6.09836Z" fill="#0CD5FF"/>
</svg>
