<svg width="109" height="104" viewBox="0 0 109 104" fill="none" xmlns="http://www.w3.org/2000/svg">
<g clip-path="url(#clip0_173_1257)">
<path d="M58.9086 89.5226H78.3438C79.9049 87.9616 81.6169 86.3381 83.3556 84.6879C87.0013 81.2179 90.8067 77.5964 94.7186 73.0649C99.1893 67.8823 99.6683 66.0894 101.025 61.0138C101.283 60.0594 101.567 58.9889 101.939 57.6598L104.263 49.4444L104.29 49.3552C105.532 45.6979 105.629 43.2806 105.115 41.889C104.955 41.4608 104.751 41.1754 104.512 41.0238C104.325 40.8989 104.077 40.8543 103.82 40.881C103.216 40.9435 102.533 41.327 101.913 42.0139L95.0113 58.5429C94.9492 58.6946 94.8605 58.8373 94.7629 58.9622C94.3549 59.7025 93.8049 60.4251 93.0953 61.1119L80.8541 74.84C80.1888 75.5893 79.0445 75.6518 78.3083 74.9828C77.5631 74.3137 77.5011 73.163 78.1663 72.4227L90.4164 58.6946C90.4696 58.6321 90.5229 58.5697 90.585 58.5162C91.8534 57.303 92.2526 55.9918 92.0308 55.0373C91.9599 54.7429 91.8357 54.4932 91.6583 54.3237C91.4897 54.1721 91.268 54.065 90.993 54.0383C89.9019 53.9223 88.2964 54.734 86.336 57.0622C86.2828 57.1246 86.2207 57.1871 86.1586 57.2495L81.4129 61.4598L81.3863 61.4866C76.2503 66.3748 74.0416 67.5344 70.0144 69.6485C69.1717 70.0945 68.2492 70.5762 67.1049 71.2006C66.6525 71.4504 66.209 71.7537 65.7743 72.0837C65.3131 72.4405 64.8695 72.8062 64.4526 73.163C62.3237 74.9649 61.2061 76.4278 60.5674 78.0424C59.9021 79.7194 59.6626 81.7621 59.3344 84.563C59.2013 85.6959 59.1038 86.8109 59.0239 87.9259C58.9618 88.47 58.9352 88.9963 58.9086 89.5226ZM54.5089 0C59.3521 0 63.264 3.94271 63.264 8.80419C63.264 13.6746 59.3433 17.6084 54.5089 17.6084C49.6745 17.6084 45.7537 13.6657 45.7537 8.80419C45.7537 3.94271 49.6745 0 54.5089 0ZM45.2304 39.9712L52.1759 47.0538L47.0577 52.2007L51.1647 56.4467L52.5574 57.8828C54.9524 61.0673 51.351 64.8495 48.2463 62.218L39.1275 52.8697C37.7526 50.9608 37.3357 48.8556 38.755 46.465L45.2304 39.9533V39.9712ZM63.7785 39.9712L56.8329 47.0538L61.9512 52.2007L57.8442 56.4467L56.4515 57.8828C54.0565 61.0673 57.6579 64.8495 60.7625 62.218L69.8725 52.8608C71.2474 50.9519 71.6643 48.8467 70.245 46.4561L63.7696 39.9444V39.9712H63.7785ZM75.3189 37.643C73.8908 38.6867 72.0812 38.1961 70.8571 36.9205L63.8672 29.5614V36.2604H45.1151V29.5792L38.1518 36.9294C36.9454 38.1961 35.1181 38.6867 33.6899 37.6519C32.2618 36.6083 31.7118 34.3961 32.9714 33.1651L42.1435 24.2093C43.6337 22.7553 46.5077 19.3032 48.4504 19.3032H60.727C62.5366 19.3032 65.3397 22.7285 66.8654 24.2093L76.0374 33.1651C77.297 34.3872 76.7293 36.5994 75.3189 37.643ZM50.0914 89.5226H30.6474C29.0862 87.9616 27.3742 86.3381 25.6356 84.6879C21.9898 81.2179 18.1844 77.5964 14.2725 73.0649C9.80183 67.8823 9.32283 66.0894 7.96565 61.0138C7.70841 60.0594 7.42455 58.9889 7.052 57.6598L4.72794 49.4444L4.70133 49.3552C3.45947 45.6979 3.36189 43.2806 3.87638 41.889C4.03605 41.4608 4.24007 41.1754 4.47957 41.0238C4.66585 40.8989 4.91422 40.8543 5.17146 40.881C5.77465 40.9435 6.45768 41.327 7.07861 42.0139L13.9798 58.5429C14.0419 58.6946 14.1306 58.8373 14.2282 58.9622C14.6362 59.7025 15.1862 60.4251 15.8958 61.1119L28.137 74.84C28.8023 75.5893 29.9466 75.6518 30.6829 74.9828C31.428 74.3137 31.4901 73.163 30.8248 72.4227L18.5924 58.6856C18.5392 58.6232 18.486 58.5608 18.4239 58.5072C17.1554 57.2941 16.7563 55.9828 16.978 55.0284C17.049 54.734 17.1732 54.4843 17.3506 54.3148C17.5191 54.1631 17.7409 54.0561 18.0159 54.0293C19.1069 53.9134 20.7213 54.7251 22.6728 57.0533C22.7261 57.1157 22.7882 57.1781 22.8503 57.2406L27.5959 61.4509L27.6226 61.4777C32.7585 66.3659 34.9673 67.5255 38.9945 69.6396C39.8372 70.0856 40.7597 70.5673 41.904 71.1917C42.3564 71.4415 42.7999 71.7448 43.2345 72.0748C43.6958 72.4316 44.1393 72.7973 44.5562 73.1541C46.6851 74.956 47.8028 76.4189 48.4415 78.0335C49.1068 79.7104 49.3463 81.7532 49.6745 84.5541C49.8075 85.6869 49.9051 86.8019 49.9849 87.917C50.0382 88.47 50.0648 88.9963 50.0914 89.5226ZM26.1234 90.147C25.8485 90.4681 25.6799 90.8874 25.6799 91.3423V102.171C25.6799 103.179 26.496 103.991 27.4895 103.991H51.9542C52.9565 103.991 53.7638 103.179 53.7638 102.171V91.2353C53.7638 90.0756 53.6928 88.8268 53.613 87.6672C53.5331 86.4808 53.4267 85.3034 53.2936 84.1348C52.9388 81.0752 52.6727 78.8363 51.8211 76.6865C50.9429 74.4832 49.5325 72.5832 46.9158 70.3621C46.4368 69.9518 45.9489 69.5415 45.4344 69.1579C44.8933 68.7476 44.3079 68.3551 43.6514 67.9894C42.587 67.4096 41.5935 66.8833 40.6887 66.4016C36.9631 64.4391 34.9229 63.3687 30.124 58.8016C30.0885 58.7659 30.0442 58.7302 30.0087 58.7035L25.3783 54.5913C22.5487 51.2641 19.7811 50.158 17.661 50.3899H17.6522C16.6143 50.497 15.7273 50.9073 15.0177 51.5317L10.3429 40.328H10.3341C10.2631 40.1674 10.1744 40.0158 10.0591 39.8731C8.76399 38.312 7.12296 37.4022 5.55289 37.2416C4.47957 37.1346 3.44173 37.3665 2.53694 37.9552C1.67651 38.5172 0.966872 39.3914 0.52335 40.5956C-0.257249 42.6918 -0.239508 45.9477 1.28621 50.4524L3.59252 58.6143C3.9296 59.7917 4.22232 60.9246 4.49731 61.9237C6.00528 67.588 6.53751 69.595 11.5671 75.4109C15.5499 80.0226 19.444 83.7334 23.1873 87.2926C24.1542 88.2649 25.13 89.1926 26.1234 90.147ZM29.5829 93.1709C29.8224 93.2245 30.0708 93.2245 30.3192 93.1709H50.1357V100.361H29.2991V93.1709H29.5829ZM82.8765 90.147C83.1515 90.4681 83.3201 90.8874 83.3201 91.3423V102.171C83.3201 103.179 82.5129 103.991 81.5105 103.991H57.0547C56.0523 103.991 55.2451 103.179 55.2451 102.171V91.2353C55.2451 91.1728 55.2451 91.1015 55.254 91.039C55.2806 89.8705 55.325 88.7376 55.3959 87.6672C55.4757 86.4808 55.5822 85.3034 55.7152 84.1348C56.0701 81.0752 56.3362 78.8363 57.1877 76.6865C58.0659 74.4832 59.4763 72.5832 62.0931 70.3621C62.5721 69.9518 63.06 69.5415 63.5745 69.1579C64.1156 68.7476 64.701 68.3551 65.3574 67.9894C66.4219 67.4096 67.4154 66.8833 68.3201 66.4016C72.0457 64.4391 74.0859 63.3687 78.8848 58.8016C78.9203 58.7659 78.9647 58.7302 79.0002 58.7035L83.6305 54.5913C86.4602 51.2641 89.2278 50.158 91.3478 50.3899H91.3567C92.3945 50.497 93.2816 50.9073 93.9912 51.5317L98.6659 40.328H98.6748C98.7458 40.1674 98.8345 40.0158 98.9498 39.8731C100.245 38.312 101.886 37.4022 103.456 37.2416C104.529 37.1346 105.567 37.3665 106.472 37.9552C107.332 38.5172 108.042 39.3914 108.486 40.5956C109.266 42.6918 109.248 45.9477 107.723 50.4524L105.416 58.6143C105.079 59.7917 104.787 60.9246 104.512 61.9237C103.004 67.588 102.471 69.595 97.4418 75.4109C93.459 80.0226 89.5649 83.7334 85.8215 87.2926C84.8458 88.2649 83.87 89.1926 82.8765 90.147ZM79.4171 93.1709C79.1776 93.2245 78.9292 93.2245 78.6808 93.1709H58.8643V100.361H79.7009V93.1709H79.4171Z" fill="white"/>
</g>
<defs>
<clipPath id="clip0_173_1257">
<rect width="109" height="104" fill="white"/>
</clipPath>
</defs>
</svg>
