<svg width="80" height="80" viewBox="0 0 80 80" fill="none" xmlns="http://www.w3.org/2000/svg">
<path d="M39.8412 62.81C24.3212 62.81 9.93624 55.0575 1.36624 42.0712L0.923737 41.4L1.36624 40.7287C9.94499 27.7425 24.325 19.99 39.8412 19.99C55.3562 19.99 69.7375 27.7437 78.305 40.7287L78.7487 41.4L78.305 42.065C69.7362 55.0562 55.3562 62.81 39.8412 62.81ZM40.0337 52.9387C41.5508 52.9421 43.0535 52.6451 44.4553 52.065C45.8571 51.4849 47.1302 50.6331 48.2012 49.5587C50.3837 47.3775 51.5812 44.4762 51.5812 41.3912C51.5812 38.3062 50.3825 35.41 48.2012 33.2237C47.1307 32.1486 45.8577 31.2963 44.4558 30.7161C43.0539 30.136 41.5509 29.8395 40.0337 29.8437C38.5167 29.839 37.0137 30.1353 35.6119 30.7155C34.2102 31.2957 32.9375 32.1482 31.8675 33.2237C30.7935 34.295 29.9421 35.5682 29.3622 36.97C28.7823 38.3717 28.4855 39.8743 28.4887 41.3912C28.4887 47.7562 33.6637 52.9387 40.0337 52.9387ZM74.0562 41.4012C67.8787 32.835 58.88 26.9962 48.7662 24.815C54.705 27.9487 58.7725 34.1837 58.7725 41.355C58.7725 46.3512 56.8212 51.0512 53.2925 54.5837C51.8949 55.9775 50.2854 57.1411 48.5237 58.0312C58.7375 55.8887 67.8262 50.0325 74.0562 41.4012ZM31.9025 58.1712C30.0277 57.265 28.3172 56.0526 26.8412 54.5837C25.0968 52.8516 23.7135 50.7903 22.7717 48.5194C21.83 46.2486 21.3484 43.8134 21.355 41.355C21.355 36.36 23.3025 31.6612 26.8412 28.1287C28.2349 26.7374 29.8408 25.5763 31.5987 24.6887C21.2075 26.7512 11.94 32.6437 5.61874 41.4012C12.0012 50.2425 21.3912 56.1637 31.9025 58.1712ZM36.0287 42.0412C37.0203 42.0102 37.9609 41.5944 38.6513 40.882C39.3418 40.1696 39.7278 39.2164 39.7278 38.2244C39.7278 37.2323 39.3418 36.2792 38.6513 35.5667C37.9609 34.8543 37.0203 34.4386 36.0287 34.4075C35.0284 34.4256 34.0751 34.8357 33.3741 35.5495C32.6731 36.2634 32.2803 37.2239 32.2803 38.2244C32.2803 39.2249 32.6731 40.1854 33.3741 40.8992C34.0751 41.613 35.0284 42.0231 36.0287 42.0412Z" fill="white"/>
</svg>
