<svg width="90" height="90" viewBox="0 0 90 90" fill="none" xmlns="http://www.w3.org/2000/svg">
<path d="M8.99788 35.3167H10.6935C10.758 27.377 15.4005 20.1227 22.5819 16.9681C29.6075 13.8817 37.9641 15.2241 43.8718 20.387C44.5097 20.9447 45.4614 20.9447 46.0998 20.387C52.0074 15.2241 60.364 13.8821 67.3897 16.9681C77.5353 21.4248 82.0667 33.5265 77.4908 43.9447C73.2673 53.5597 49.986 70.6949 44.986 74.2983C39.9855 70.6949 16.7047 53.5597 12.4812 43.9447C12.1458 43.1809 11.3145 42.7907 10.5311 42.9824C10.4365 43.0053 10.3428 43.0354 10.2508 43.0757C9.39486 43.4519 9.00551 44.4503 9.38171 45.3062C14.4729 56.8959 42.7801 76.8965 43.9825 77.7422C44.2709 77.945 44.6115 78.0497 44.9559 78.0497C44.9686 78.0497 44.9813 78.0497 44.9945 78.0497C45.3469 78.0544 45.6956 77.9496 45.9903 77.7427C47.1927 76.897 75.4999 56.8963 80.5911 45.3066C85.9182 33.1795 80.6073 19.0764 68.752 13.869C64.618 12.0529 60.0744 11.493 55.6113 12.2488C51.7462 12.9037 48.1012 14.5103 44.9868 16.9218C41.8725 14.5107 38.2271 12.9037 34.362 12.2488C29.8993 11.4926 25.3552 12.0533 21.2213 13.869C16.7552 15.8306 13.0822 19.0997 10.599 23.3228C8.22639 27.3579 7.10414 31.9691 7.33911 36.676C7.49392 35.9007 8.17804 35.3167 8.99873 35.3167H8.99788Z" fill="white"/>
<path d="M8.99788 38.7025H16.5355C16.9842 38.7025 17.4151 38.5239 17.7324 38.2067L18.7337 37.2053L22.5568 33.3827L23.8928 37.3092L27.699 48.4969C27.9161 49.1348 28.4912 49.5835 29.163 49.6386C29.2097 49.6425 29.2559 49.6442 29.3022 49.6442C29.9222 49.6442 30.4978 49.3036 30.7938 48.7505L36.7838 37.568L41.006 29.6855L44.4499 37.7219L44.88 38.7254C45.1467 39.3476 45.7588 39.7514 46.4361 39.7514H56.778C56.6419 39.2666 56.5677 38.7564 56.5677 38.2283C56.5677 37.576 56.6801 36.9492 56.8849 36.3656H47.5524L42.7318 25.1168C42.4756 24.5188 41.8992 24.1205 41.2494 24.0926C40.5975 24.0654 39.991 24.4111 39.6836 24.9845L32.984 37.4916L29.6495 43.7174L27.4941 37.3813L24.8866 29.7169C24.6983 29.1634 24.2372 28.7461 23.6676 28.6133C23.0984 28.481 22.5004 28.6515 22.0869 29.065L15.8352 35.3167H8.99873C8.17804 35.3167 7.49434 35.9007 7.33911 36.676C7.31748 36.7837 7.30603 36.8953 7.30603 37.0098C7.30603 37.9446 8.06395 38.7025 8.99873 38.7025H8.99788Z" fill="white"/>
<path d="M62.2094 43.871C65.3208 43.871 67.852 41.3398 67.852 38.2284C67.852 35.117 65.3208 32.5858 62.2094 32.5858C59.7508 32.5858 57.6556 34.167 56.8841 36.3656C56.6792 36.9492 56.5668 37.5757 56.5668 38.2284C56.5668 38.756 56.6411 39.2667 56.7772 39.7515C57.4435 42.1249 59.6256 43.871 62.2094 43.871ZM59.5294 38.2284C59.5294 36.7508 60.7318 35.5484 62.2094 35.5484C63.6871 35.5484 64.8895 36.7508 64.8895 38.2284C64.8895 39.7061 63.6875 40.9085 62.2094 40.9085C60.7313 40.9085 59.5294 39.7061 59.5294 38.2284Z" fill="white"/>
</svg>
