<svg width="107" height="100" viewBox="0 0 107 100" fill="none" xmlns="http://www.w3.org/2000/svg">
<path fill-rule="evenodd" clip-rule="evenodd" d="M57.7016 1.7505C58.3789 3.22325 57.7177 4.97012 56.2289 5.642C51.1226 7.9425 47.5644 13.0649 47.5483 19.015V19.1225C47.5805 27.2172 54.1595 33.7801 62.2704 33.7801C69.8652 33.7801 76.1164 28.0289 76.9119 20.6544C77.0785 19.0311 78.5244 17.8594 80.153 18.0314C81.7601 18.2141 82.9426 19.6546 82.7599 21.2832C82.2976 25.6424 80.4755 29.5822 77.7289 32.6944C82.1417 33.6887 86.0225 36.1129 88.8766 39.4239C89.9194 40.6655 89.785 42.5199 88.538 43.5787C87.3125 44.6376 85.442 44.4818 84.3992 43.2562C81.6795 40.0796 77.6644 38.0909 73.187 38.0909C65.06 38.0909 58.4649 44.6645 58.4649 52.813C58.4649 55.2533 59.0669 57.5537 60.1043 59.5747C62.4048 59.2684 64.802 60.08 66.4252 61.972C67.1616 62.8266 67.8335 63.7189 68.4463 64.6058C69.446 66.0677 69.8276 67.7501 69.661 69.3734C70.994 70.2011 72.069 71.4911 72.6226 73.1036C73.2837 75.0171 73.7729 76.8715 74.1867 78.5001C74.5092 79.7579 74.477 81.0156 74.1545 82.1766C74.9231 82.8539 75.552 83.7139 75.982 84.719C76.2884 85.407 76.4872 85.6596 76.5517 85.7134C76.7506 85.8531 76.9334 86.009 77.1161 86.1595C77.6697 85.9445 78.2503 85.8048 78.8684 85.7295C79.3844 85.6704 80.0025 85.5629 80.7066 85.407C83.1576 84.8749 85.5871 85.6704 87.2372 87.3259C88.5004 86.5573 89.4302 85.4392 89.8925 84.0417C90.4784 82.2572 90.43 79.6988 88.7422 76.42C87.9897 74.9795 88.5541 73.2004 90 72.464C91.4459 71.7115 93.2196 72.2813 93.9721 73.7271C95.1707 76.0545 95.8641 78.3389 96.0576 80.4996C97.8529 78.3658 99.7395 75.5009 101.288 71.7008C101.9 70.1958 103.615 69.4809 105.136 70.0882C106.641 70.701 107.356 72.421 106.748 73.9206C104.905 78.4464 102.62 81.8971 100.417 84.4718C101.841 84.6545 103.362 85.0093 104.985 85.5736C106.523 86.095 107.334 87.7827 106.813 89.3146C106.276 90.8519 104.588 91.6635 103.056 91.126C100.126 90.1155 98.041 90.0886 96.0146 90.4971C94.128 90.8841 92.2736 91.6635 89.6775 92.7493L89.2959 92.9051C89.0648 95.942 86.8717 98.6134 83.7274 99.2853C82.6416 99.5164 81.5827 99.6991 80.5507 99.8228C78.4652 100.086 76.4873 99.3928 75.0306 98.1243C72.8645 98.9628 70.3544 98.737 68.328 97.3126C65.5223 95.3185 63.9259 92.6471 62.9315 90.3036C62.2542 88.7395 62.1951 87.084 62.6251 85.579C61.5824 84.676 60.803 83.4451 60.4321 82.01C60.0505 80.4889 59.6528 79.0806 59.1905 77.6993C58.8358 76.6888 58.7336 75.646 58.8358 74.6516C58.0402 74.1464 57.2985 73.4691 56.7341 72.6253C56.4116 72.1523 56.0622 71.7061 55.6752 71.2654C53.6381 68.9004 53.4231 65.5894 54.912 63.0416C52.2567 60.4347 48.6232 58.8222 44.6081 58.8222C39.8996 58.8222 35.6964 61.0314 33.0142 64.4767C32.8154 64.767 32.6004 65.0465 32.3854 65.3368C30.8051 67.6856 29.886 70.5021 29.886 73.539C29.886 76.3447 30.6654 78.9678 32.0306 81.193C32.8745 82.5744 32.4284 84.3965 31.0363 85.2404C29.6549 86.0843 27.8435 85.6381 27.005 84.2567C25.0861 81.1285 24.0004 77.4628 24.0004 73.539C24.0004 72.9531 24.0326 72.3565 24.081 71.776C21.6139 72.8349 18.878 73.4154 16.0293 73.4154C14.5995 73.4154 13.1913 73.2595 11.8421 72.9854C10.2511 72.6629 9.23525 71.0988 9.55775 69.5024C9.88025 67.906 11.4444 66.8848 13.0408 67.218C14.0083 67.4169 15.0026 67.5298 16.0346 67.5298C20.7431 67.5298 24.9249 65.3045 27.6285 61.8699C27.8274 61.5796 28.0424 61.2894 28.2574 61.0099C29.8376 58.6664 30.7568 55.8445 30.7568 52.8076C30.7568 44.6591 24.1616 38.0855 16.0346 38.0855C11.7078 38.0855 7.827 39.9399 5.12875 42.9123C4.043 44.1109 2.1725 44.2022 0.973879 43.1111C-0.240871 42.02 -0.326872 40.1495 0.758878 38.9562C3.56463 35.8764 7.2895 33.6404 11.4928 32.689C8.82675 29.679 7.0315 25.8627 6.51013 21.6756C6.29513 20.0524 7.44538 18.5796 9.0525 18.3807C10.665 18.1819 12.1378 19.316 12.3474 20.9231C13.2558 28.1794 19.4478 33.7747 26.9459 33.7747C35.0568 33.7747 41.6357 27.2119 41.668 19.1171V19.0096C41.6519 13.1509 38.2173 8.10375 33.2346 5.74412C31.7619 5.05612 31.133 3.29312 31.8371 1.82037C32.5251 0.363745 34.2774 -0.265128 35.7501 0.428247C39.432 2.17512 42.528 4.97012 44.6135 8.44775C46.7796 4.85725 49.9831 1.987 53.8316 0.256248C55.3044 -0.404878 57.0513 0.256246 57.7124 1.74512L57.7016 1.7505ZM36.551 54.5814C39.0235 53.5225 41.7486 52.9366 44.6028 52.9366C47.4569 52.9366 50.182 53.5171 52.6545 54.5814C52.6061 53.9955 52.5739 53.3989 52.5739 52.8184C52.5739 47.5885 54.5196 42.8209 57.7285 39.182C52.16 37.9242 47.4569 34.4305 44.6028 29.6897C41.7486 34.4305 37.0401 37.9242 31.477 39.182C34.6859 42.8155 36.6316 47.5885 36.6316 52.8184C36.6316 53.3989 36.5994 53.9955 36.551 54.5814ZM44.6028 42.6327C43.7911 42.6327 43.13 43.2939 43.13 44.1055C43.13 44.9171 43.7911 45.5782 44.6028 45.5782C45.4144 45.5782 46.0755 44.9171 46.0755 44.1055C46.0755 43.2939 45.4144 42.6327 44.6028 42.6327ZM37.2444 44.1055C37.2444 40.042 40.5393 36.7471 44.6028 36.7471C48.6663 36.7471 51.9611 40.0474 51.9611 44.1055C51.9611 48.1636 48.6663 51.4639 44.6028 51.4639C40.5393 51.4639 37.2444 48.169 37.2444 44.1055ZM64.9686 74.6355L65.318 74.2055L65.8716 74.1894C66.393 74.1733 66.866 74.4958 67.0541 75.001C67.6346 76.7049 68.0807 78.3711 68.4785 79.9568C68.6021 80.4136 68.4463 80.8759 68.1076 81.1661L67.6776 81.537L67.1401 81.4564C66.6671 81.3811 66.2533 81.0425 66.1242 80.5534C65.7265 78.9893 65.2965 77.3929 64.7483 75.8019C64.6139 75.388 64.6999 74.958 64.9632 74.6355H64.9686ZM69.6126 86.3046L69.0751 86.224L68.6612 86.5949C68.2635 86.9335 68.1237 87.5033 68.3387 87.987C69.1074 89.7715 70.134 91.3786 71.7304 92.4966C72.2679 92.8836 72.9989 92.7546 73.3859 92.2386L73.7729 91.7495L73.5847 91.1475C73.5041 90.9056 73.3536 90.6745 73.1279 90.5186C72.0368 89.7554 71.2412 88.589 70.564 87.0356C70.3974 86.6217 70.0319 86.3584 69.6126 86.2993V86.3046ZM78.734 92.0559L78.3524 92.545L78.5512 93.1416C78.7179 93.6952 79.2607 94.0608 79.8574 93.9855C80.6744 93.8941 81.5451 93.7382 82.4696 93.5447C83.1254 93.405 83.5392 92.7439 83.4049 92.0989C83.2705 91.4378 82.6094 91.0293 81.9644 91.1636C81.0882 91.3464 80.3089 91.4861 79.5671 91.5775C79.2285 91.6205 78.9382 91.7871 78.7394 92.0505L78.734 92.0559ZM62.6197 69.8356L63.168 69.8195L63.5335 69.3734C63.856 68.9756 63.9044 68.379 63.5819 67.9329C63.0928 67.2126 62.5552 66.5085 61.9586 65.8151C61.5286 65.3099 60.76 65.2507 60.2547 65.6915C59.7495 66.1376 59.6904 66.9009 60.1311 67.4061C60.6686 68.0242 61.1416 68.6531 61.5877 69.2981C61.8189 69.6529 62.2166 69.8356 62.6144 69.8356H62.6197ZM76.5625 85.7349C76.5625 85.7349 76.5464 85.7349 76.5464 85.7188C76.5464 85.7188 76.5518 85.7241 76.5625 85.7349Z" fill="white"/>
</svg>
