<svg width="120" height="120" viewBox="0 0 120 120" fill="none" xmlns="http://www.w3.org/2000/svg">
<g clip-path="url(#clip0_122_56)">
<path d="M42.3245 36.3738C40.2355 38.2511 38.2447 40.2349 36.3602 42.3173L31.9921 45.9848C31.5774 45.6016 31.0909 45.3045 30.5608 45.1105C30.0306 44.9165 29.4672 44.8295 28.9032 44.8545C28.4518 44.8664 28.004 44.9374 27.571 45.0655C26.5805 41.5527 26.1292 37.9098 26.2326 34.2615C26.7833 21.223 33.6701 13.1667 39.7518 8.64434C44.9913 4.74888 51.5342 2.42504 59.2423 2.42504C66.3105 2.33423 73.2141 4.55977 78.8985 8.76167C85.1935 13.3034 91.7085 21.3351 92.2535 34.2615C92.41 37.9672 91.9743 40.9894 90.951 45.0296C90.5546 44.924 90.1472 44.8647 89.7371 44.8531C89.1731 44.8282 88.6099 44.9152 88.0798 45.1092C87.5497 45.3032 87.0633 45.6003 86.6487 45.9833L82.3137 42.5491C80.9143 39.0274 77.754 35.1362 74.4604 32.3C72.983 30.9763 71.2918 29.9127 69.4588 29.1544L64.0272 28.4897C60.3669 30.032 55.2007 33.2727 52.3025 34.8826C52.1379 34.9628 51.9543 34.996 51.772 34.9784C51.5898 34.9608 51.4159 34.8932 51.2696 34.783C51.1234 34.6728 51.0104 34.5244 50.9432 34.354C50.876 34.1837 50.8572 33.9981 50.8889 33.8177C50.9644 33.1805 50.9221 32.5349 50.764 31.913C50.571 31.1178 49.9597 30.7776 49.4833 31.0293C47.3662 32.1401 44.7798 34.1669 42.3245 36.3738Z" fill="white"/>
<path d="M32.795 45.1819C31.9277 44.4089 30.8473 43.9158 29.6951 43.7671C28.5429 43.6185 27.3727 43.8212 26.3377 44.3488C24.8096 45.1237 23.9571 46.6915 23.5866 48.3062C22.7038 52.1553 23.6713 56.4789 25.8575 59.7433C27.4348 62.0993 29.7515 63.899 32.7174 63.4807C33.0067 63.3991 33.2522 63.2067 33.4006 62.9453C33.549 62.6838 33.5884 62.3744 33.5103 62.0842C33.4235 61.7982 33.2302 61.5564 32.9703 61.4088C32.7104 61.2613 32.4038 61.2192 32.1137 61.2912C30.3481 61.5406 28.8361 60.0716 27.9178 58.7465C27.098 57.5153 26.4664 56.1687 26.0439 54.7512C25.5828 53.2222 25.4303 51.6168 25.5954 50.0283C25.6503 49.2581 25.8281 48.5017 26.122 47.7877C26.2197 47.5842 26.3303 47.3872 26.4531 47.1978C26.4848 47.1467 26.5217 47.096 26.5567 47.0478C26.5458 47.0629 26.4451 47.1845 26.5302 47.0819C26.6233 46.9701 26.7223 46.8635 26.8269 46.7625C27.8913 45.742 30.0084 45.7089 31.1912 46.789C32.2684 47.773 33.8788 46.1716 32.7968 45.1833L32.795 45.1819Z" fill="white"/>
<path d="M81.7508 91.6589C84.7256 92.7176 87.7004 93.7769 90.6611 94.8759C93.6398 95.9023 96.5594 97.0927 99.4067 98.4416C102.046 99.7349 104.499 101.377 106.701 103.324C108.916 105.362 110.698 107.824 111.941 110.565C113.045 112.963 114.012 115.421 114.838 117.928C115.296 119.309 117.49 118.717 117.028 117.325C116.187 114.796 115.182 112.308 114.106 109.871C112.922 107.166 111.262 104.695 109.204 102.576C106.993 100.387 104.471 98.5369 101.719 97.0857C98.8058 95.594 95.794 94.303 92.7048 93.2215C89.2702 91.9309 85.8133 90.7004 82.3563 89.4698C82.0661 89.3927 81.7572 89.4326 81.496 89.5809C81.2348 89.7291 81.0423 89.974 80.9598 90.2628C80.8858 90.553 80.927 90.8605 81.0748 91.121C81.2226 91.3815 81.4656 91.5746 81.7527 91.6598L81.7508 91.6589Z" fill="white"/>
<path d="M3.80181 117.926C4.59188 115.548 5.5357 113.167 6.53299 110.927C7.6762 108.3 9.30505 105.913 11.334 103.891C15.7739 99.5458 21.5623 97.2778 27.2541 95.085C30.4337 93.8597 33.6328 92.666 36.8891 91.6588C38.2805 91.2278 37.6867 89.035 36.2854 89.4689C33.3139 90.3881 30.3916 91.4663 27.4859 92.5747C24.4425 93.7357 21.3565 94.8669 18.4323 96.307C15.5949 97.6897 12.951 99.4383 10.568 101.508C8.14102 103.676 6.18119 106.316 4.80808 109.267C3.5802 111.885 2.51297 114.575 1.61233 117.323C1.15059 118.713 3.34291 119.31 3.80181 117.926Z" fill="white"/>
<path d="M36.8891 91.6588C38.6055 91.0646 40.3138 90.4325 41.9985 89.7475C42.9078 89.4257 43.7632 88.9683 44.5357 88.3907C45.4241 87.6398 46.0487 86.6241 46.3179 85.4925C46.6765 84.0354 46.597 82.4505 46.7309 80.9598C46.7286 80.6594 46.6082 80.3719 46.3957 80.1595C46.1833 79.9471 45.8959 79.8267 45.5955 79.8243C45.2963 79.8305 45.011 79.9521 44.7994 80.1637C44.5878 80.3753 44.4662 80.6606 44.46 80.9598C44.3896 81.7427 44.3408 82.5267 44.293 83.3111C44.2992 83.9657 44.2095 84.6178 44.0267 85.2465C43.6998 86.2504 42.9234 86.8777 41.8268 87.3721C41.753 87.4052 41.6783 87.4369 41.6049 87.471C41.3958 87.5689 41.8136 87.3877 41.5964 87.4752C41.3599 87.5698 41.129 87.6645 40.8939 87.7591C40.3522 87.9729 39.8086 88.1801 39.2636 88.3855C38.2753 88.7573 37.2851 89.1244 36.2878 89.4698C36.0014 89.556 35.7592 89.7491 35.6114 90.0092C35.4637 90.2693 35.4218 90.5762 35.4944 90.8664C35.577 91.1553 35.7695 91.4002 36.0308 91.5486C36.2921 91.697 36.6011 91.7369 36.8915 91.6598L36.8891 91.6588Z" fill="white"/>
<path d="M82.3327 89.4689C81.3349 89.1235 80.3457 88.7564 79.3569 88.3845C78.8119 88.1792 78.2688 87.972 77.7261 87.7581C77.5047 87.6706 77.2838 87.5807 77.0638 87.4913C76.7856 87.3782 77.2057 87.559 77.0165 87.471C76.9432 87.4369 76.8684 87.4052 76.7946 87.3721C75.6989 86.8777 74.9207 86.2457 74.5952 85.2465C74.4126 84.6178 74.3228 83.9657 74.3288 83.3111C74.2815 82.5267 74.2319 81.7427 74.1614 80.9598C74.1538 80.661 74.0318 80.3766 73.8204 80.1653C73.6091 79.9539 73.3247 79.8319 73.0259 79.8243C72.7255 79.8267 72.4381 79.9471 72.2257 80.1595C72.0132 80.3719 71.8929 80.6594 71.8905 80.9598C72.1133 83.435 71.8432 86.1799 73.7483 88.0869C74.5035 88.7694 75.3867 89.2951 76.3466 89.6335C77.1797 89.9812 78.0247 90.3001 78.8696 90.6175C79.8196 90.9742 80.7714 91.3272 81.7304 91.6583C82.0208 91.7384 82.3311 91.6998 82.5931 91.551C82.855 91.4023 83.0472 91.1556 83.1272 90.8652C83.2073 90.5748 83.1687 90.2645 83.0199 90.0025C82.8712 89.7406 82.6245 89.5484 82.3341 89.4684L82.3327 89.4689Z" fill="white"/>
<path d="M87.4525 46.7876C88.0202 46.3072 88.7286 46.0244 89.471 45.9817C90.2134 45.9391 90.9495 46.1389 91.5685 46.5511C91.8833 46.7702 92.1403 47.0624 92.3174 47.4027C92.6595 48.0488 92.8827 48.7511 92.9764 49.4762C93.3867 52.4966 92.7251 55.5652 91.1067 58.1481C90.1757 59.6856 88.543 61.5714 86.5262 61.2866C86.2362 61.2164 85.9304 61.2593 85.671 61.4066C85.4116 61.5539 85.218 61.7945 85.1296 62.0795C85.0516 62.3698 85.0911 62.6791 85.2395 62.9405C85.3879 63.2019 85.6333 63.3943 85.9225 63.4761C90.7557 64.1592 93.5838 59.2352 94.8077 55.2787C95.3999 53.2538 95.5314 51.122 95.1928 49.0396C94.9326 47.3412 94.2547 45.6863 92.8203 44.663C91.7647 43.9644 90.5071 43.6361 89.2448 43.7294C87.9824 43.8228 86.7868 44.3325 85.8454 45.1786C84.7639 46.1665 86.3734 47.7688 87.4511 46.7843L87.4525 46.7876Z" fill="white"/>
<path d="M85.299 60.0178C84.8351 61.9556 84.2095 63.8512 83.4288 65.6845C83.567 65.3259 83.4142 65.7148 83.3815 65.7876C83.3285 65.9054 83.2737 66.0242 83.2178 66.1387C83.0887 66.4083 82.9534 66.6747 82.8143 66.9391C82.4708 67.5901 82.1046 68.2288 81.72 68.8571C79.7622 72.1868 77.2532 75.1599 74.3 77.6495C72.7069 79.0062 70.8245 79.9804 68.797 80.4976C67.373 80.824 67.9757 83.014 69.4006 82.6875C73.5199 81.7413 76.9422 78.7135 79.6252 75.5859C81.929 72.9855 83.8538 70.0725 85.3425 66.9335C85.4302 66.7395 85.5142 66.544 85.5947 66.3468C85.6278 66.2664 85.7839 65.8983 85.6514 66.2016C85.8691 65.7039 86.081 65.2048 86.2726 64.6962C86.7851 63.3722 87.192 62.0097 87.4894 60.6214C87.5621 60.3314 87.5202 60.0244 87.3726 59.7644C87.225 59.5043 86.9828 59.3111 86.6965 59.2249C86.4062 59.1477 86.0972 59.1876 85.836 59.3358C85.5747 59.4841 85.3816 59.729 85.299 60.0178Z" fill="white"/>
<path d="M31.0753 60.5245C31.9871 64.5905 33.6389 68.4541 35.9481 71.9227C38.3893 75.5608 41.5827 78.9671 45.445 81.1084C47.4328 82.2155 49.6044 82.9542 51.855 83.2888C52.145 83.3591 52.451 83.3163 52.7105 83.169C52.97 83.0217 53.1637 82.781 53.252 82.4959C53.3299 82.2056 53.2903 81.8963 53.1418 81.6349C52.9934 81.3735 52.7479 81.1811 52.4587 81.0994C44.2926 79.9015 38.183 72.8131 35.0762 65.5696C34.3021 63.7457 33.6963 61.8549 33.2662 59.9208C32.944 58.4958 30.754 59.099 31.0762 60.5245H31.0753Z" fill="white"/>
<path d="M78.045 6.8007C73.3435 3.73369 67.9531 1.88405 62.3591 1.4183C56.4519 0.88802 50.5063 1.85144 45.0689 4.21997C40.7973 6.16736 36.9722 8.97315 33.8318 12.4627C30.6914 15.9523 28.3029 20.0509 26.815 24.5034C24.7141 31.1097 24.5509 38.1797 26.3447 44.8758C26.7086 46.2899 28.8995 45.6905 28.5347 44.2722C27.0167 38.5852 26.9947 32.6024 28.4708 26.9044C29.6405 22.4917 31.7741 18.3933 34.718 14.9043C37.7939 11.1674 41.6975 8.19795 46.1198 6.23106C50.542 4.26417 55.3615 3.35389 60.1966 3.5723C66.1384 3.71037 71.9231 5.50789 76.8968 8.76168C78.1268 9.56074 79.2646 7.5955 78.0426 6.8007H78.045Z" fill="white"/>
<path d="M92.1589 44.8759C92.8893 42.0846 93.3099 39.2213 93.4131 36.3379C93.462 33.5277 93.1968 30.7207 92.6225 27.9694C91.6972 23.41 89.8102 19.1005 87.0873 15.3283C85.7437 13.4814 84.2151 11.7765 82.5253 10.2401C81.4452 9.25987 79.8348 10.8613 80.9196 11.8458C83.844 14.4827 86.2353 17.6562 87.964 21.1942C90.0469 25.6102 91.1335 30.4301 91.1469 35.3127C91.1356 38.3364 90.7399 41.3464 89.9694 44.2703C89.6212 45.6896 91.8107 46.2947 92.1594 44.874L92.1589 44.8759Z" fill="white"/>
<path d="M54.3766 68.8448C55.9926 69.6784 57.792 70.0932 59.6099 70.0512C61.4588 70.0389 63.3554 69.6869 64.84 68.5302C65.0513 68.3164 65.1698 68.0279 65.1698 67.7273C65.1698 67.4267 65.0513 67.1383 64.84 66.9245C64.6233 66.7177 64.3352 66.6024 64.0357 66.6024C63.7362 66.6024 63.4482 66.7177 63.2315 66.9245C63.5598 66.669 63.249 66.9032 63.1652 66.9571C63.0578 67.0262 62.9467 67.0901 62.8341 67.1492C62.7674 67.1842 62.3969 67.3484 62.651 67.2438C62.5005 67.3044 62.3477 67.3602 62.1935 67.4099C61.3013 67.6856 60.3692 67.8102 59.4358 67.7784C58.5453 67.7953 57.6574 67.6757 56.8031 67.4236C56.6356 67.3739 56.4719 67.3143 56.3073 67.2571C56.2528 67.2381 56.2008 67.2145 56.1469 67.1946C56.4255 67.2978 56.1814 67.2102 56.1289 67.1856C55.9236 67.091 55.7216 66.9879 55.521 66.8819C55.2594 66.7364 54.9518 66.6975 54.6623 66.7734C54.3728 66.8493 54.1238 67.0341 53.9673 67.2892C53.8186 67.55 53.778 67.8587 53.8541 68.1491C53.9303 68.4395 54.1171 68.6886 54.3747 68.8429L54.3766 68.8448Z" fill="white"/>
<path d="M59.1506 56.364C59.3974 57.2558 59.5952 58.1605 59.7429 59.0739L59.7022 58.7721C59.7197 58.896 59.723 59.0216 59.7121 59.1463L59.7528 58.8445C59.7444 58.9016 59.7306 58.9578 59.7117 59.0124L59.8262 58.7413C59.8097 58.7792 59.7897 58.8155 59.7665 58.8497L59.9444 58.6197C59.9182 58.652 59.8885 58.6814 59.856 58.7073L60.0854 58.5294C60.0167 58.5721 59.9451 58.6101 59.8711 58.6429L60.1422 58.5284C60.0263 58.5783 59.9047 58.6139 59.7803 58.6344L60.0821 58.5937C59.9694 58.607 59.8556 58.607 59.7429 58.5937L60.0447 58.6339C59.9165 58.6164 59.7907 58.5866 59.6629 58.5677C59.3669 58.4988 59.056 58.5395 58.7877 58.6822C58.6589 58.7574 58.5462 58.8573 58.456 58.9761C58.3659 59.0949 58.3 59.2303 58.2622 59.3746C58.2243 59.5189 58.2153 59.6692 58.2356 59.817C58.2559 59.9648 58.3051 60.1071 58.3804 60.2358C58.4525 60.3639 58.5499 60.4761 58.6665 60.5655C58.7832 60.655 58.9168 60.7199 59.0593 60.7562C59.328 60.7922 59.5891 60.8617 59.8635 60.8736C60.2645 60.8766 60.6605 60.7838 61.0184 60.603C61.2409 60.5051 61.4384 60.3582 61.5959 60.1731C61.7535 59.988 61.8671 59.7695 61.9281 59.5342C62.0083 59.1446 62.004 58.7422 61.9153 58.3543C61.7677 57.481 61.5662 56.6157 61.3415 55.7594C61.3018 55.6157 61.2343 55.4811 61.1426 55.3635C61.051 55.2458 60.9371 55.1473 60.8074 55.0737C60.6777 55.0001 60.5348 54.9527 60.3868 54.9343C60.2388 54.9159 60.0887 54.9269 59.9449 54.9665C59.8011 55.0061 59.6666 55.0737 59.5489 55.1653C59.4313 55.257 59.3328 55.3709 59.2592 55.5006C59.1856 55.6303 59.1382 55.7732 59.1198 55.9212C59.1014 56.0692 59.1124 56.2193 59.152 56.3631L59.1506 56.364Z" fill="white"/>
<path d="M44.6545 48.7969C44.214 50.228 44.5012 53.5198 47.212 53.7999C50.7953 53.7786 50.9859 49.7985 49.78 47.9274C48.7922 46.395 45.8902 45.7578 44.6545 48.7969Z" fill="white"/>
<path d="M73.9873 48.7969C74.4278 50.228 74.1406 53.5198 71.4297 53.7999C67.8465 53.7781 67.6554 49.7984 68.8618 47.9269C69.8491 46.395 72.753 45.7577 73.9873 48.7969Z" fill="white"/>
<path d="M68.8826 30.1366C71.564 31.3663 73.9726 33.1195 75.9667 35.2934C78.0753 37.4819 80.0694 40.0111 81.218 42.8515C81.3059 43.1368 81.4994 43.3778 81.759 43.5251C82.0186 43.6725 82.3246 43.7152 82.6146 43.6444C82.9039 43.5627 83.1493 43.3703 83.2978 43.1089C83.4463 42.8475 83.4859 42.5382 83.408 42.2479C82.0549 39.1129 80.1244 36.2602 77.7171 33.8386C75.5597 31.4545 72.945 29.5284 70.0284 28.1747C69.7663 28.0321 69.4597 27.9949 69.1711 28.0706C68.8825 28.1463 68.6336 28.3292 68.4752 28.582C68.3253 28.8426 68.284 29.1517 68.3602 29.4424C68.4364 29.7332 68.6241 29.9822 68.8826 30.1357V30.1366Z" fill="white"/>
<path d="M37.163 43.1203C40.4118 39.5087 44.0087 35.9817 48.0352 33.2411C48.4558 32.9544 48.8844 32.6786 49.323 32.4198C49.5268 32.3152 49.7251 32.2003 49.9172 32.0754C49.9101 32.0489 49.4379 32.2079 49.6016 32.0281C49.6016 32.0281 49.6239 32.0338 49.6177 32.0409C49.5822 32.0825 49.7762 32.8087 49.7828 32.9473C49.7907 33.2129 49.7834 33.4788 49.7611 33.7435C49.7263 34.1281 49.7922 34.515 49.9524 34.8663C50.1126 35.2176 50.3615 35.5212 50.6746 35.7471C51.8233 36.558 52.9251 35.8455 53.9636 35.2475C54.9821 34.6604 55.9946 34.0648 57.0112 33.4724C59.4557 31.9831 61.9902 30.6467 64.6001 29.471C64.859 29.3179 65.047 29.0689 65.1233 28.7779C65.1995 28.487 65.1579 28.1778 65.0075 27.9174C64.8502 27.6633 64.6013 27.4793 64.3122 27.4035C64.0232 27.3277 63.716 27.3658 63.4543 27.51C61.1203 28.5534 58.8512 29.7363 56.6592 31.0521C55.5763 31.6761 54.4991 32.3105 53.4185 32.9383C52.9715 33.1981 52.5239 33.4587 52.0735 33.7109C51.9937 33.7493 51.9165 33.7927 51.8422 33.841C51.644 33.9924 51.7603 33.8594 51.9103 33.8703C52.1166 33.8855 52.0083 34.1513 52.0395 33.6678C52.1199 32.4165 51.9586 30.7602 50.7479 30.0676C49.5732 29.3953 48.3825 30.3041 47.4126 30.9338C45.3145 32.3339 43.3305 33.8978 41.4791 35.6108C39.4025 37.473 37.4258 39.4437 35.5573 41.5146C34.5818 42.5984 36.1828 44.2112 37.163 43.1203Z" fill="white"/>
<path d="M35.7839 91.3551C40.32 96.0307 46.9059 98.7098 53.2444 99.7468C60.4173 100.927 67.7787 99.991 74.4277 97.0526C77.5741 95.7063 80.435 93.7726 82.8573 91.3551C83.8754 90.3058 82.2716 88.6982 81.2516 89.7494C77.0941 94.0366 71.1463 96.4394 65.3533 97.4698C58.6053 98.659 51.6564 97.8285 45.3788 95.0826C42.3994 93.8319 39.6876 92.0215 37.3901 89.7494C36.3706 88.6986 34.7653 90.3053 35.7839 91.3551Z" fill="white"/>
<path d="M35.4258 74.2546C34.6016 72.0071 33.9325 69.7058 33.4232 67.3668C32.9558 65.1839 32.6137 62.9764 32.2111 60.7813C32.0824 60.0816 32.3531 59.0734 33.2519 59.1699C34.2814 59.2802 34.6821 60.3626 34.9802 61.1905C35.7338 63.2854 36.4344 65.393 37.1531 67.5007C37.5372 68.6271 37.9479 69.7426 38.4181 70.8364C38.8901 71.9547 39.5886 72.963 40.4695 73.798C42.0651 75.3633 43.7987 76.7812 45.6494 78.0346C46.614 78.6775 47.6203 79.2481 48.6095 79.8513C49.4365 80.3556 50.5313 80.9673 50.9873 81.7436C51.5048 82.6506 51.7792 83.6757 51.784 84.7199C51.8081 86.01 51.4472 87.2273 51.3407 88.5046C50.8378 94.5281 50.6022 100.574 49.8912 106.577C49.8928 106.877 50.0129 107.165 50.2255 107.378C50.4381 107.591 50.7259 107.711 51.0266 107.712C51.3255 107.705 51.6103 107.583 51.8217 107.372C52.0332 107.161 52.155 106.876 52.162 106.577C52.84 100.848 53.0883 95.0807 53.5439 89.334C53.6518 87.9767 53.9924 86.6525 54.0482 85.2904C54.1119 83.9734 53.8787 82.659 53.366 81.4442C52.3541 79.0948 49.9484 78.0507 47.8862 76.7747C45.8999 75.5358 44.0484 74.093 42.3619 72.4696C41.9329 72.0989 41.5386 71.6898 41.1838 71.2476C40.8475 70.7431 40.5696 70.202 40.3555 69.6348C39.8824 68.4994 39.4845 67.3318 39.0961 66.1651C38.7048 64.9899 38.333 63.8081 37.9275 62.6377C37.5656 61.4912 37.1381 60.3664 36.6473 59.2688C35.4845 56.8598 32.047 55.9032 30.446 58.4319C30.0523 59.0437 29.8543 59.7609 29.8783 60.488C29.9677 61.2514 30.098 62.0094 30.2686 62.7588C30.4971 64.0508 30.7147 65.3448 30.9626 66.6335C31.5028 69.4308 32.2633 72.1811 33.2368 74.8587C33.3234 75.1448 33.5166 75.3867 33.7766 75.5343C34.0366 75.6819 34.3433 75.7239 34.6334 75.6516C34.9223 75.5694 35.1674 75.3769 35.3158 75.1157C35.4641 74.8544 35.5038 74.5453 35.4263 74.255L35.4258 74.2546Z" fill="white"/>
<path d="M34.0941 56.3021C33.6082 54.4192 32.5948 52.1937 30.262 52.434C29.702 52.4711 29.1569 52.6297 28.6644 52.8987C28.1719 53.1677 27.7439 53.5408 27.4102 53.9919C26.9289 54.7734 26.6497 55.6625 26.5979 56.5788C26.3926 58.9817 26.604 61.4574 26.7285 63.8593C26.8732 66.6505 27.0525 69.4456 27.325 72.2288C27.3813 73.0477 27.4919 73.862 27.6562 74.6662C28.1608 76.7343 28.9854 78.7109 30.1002 80.5245C32.5021 84.4829 35.977 87.6209 39.4088 90.6629C40.4969 91.6295 42.1107 90.029 41.015 89.0573C38.2682 86.6213 35.4542 84.1508 33.2695 81.1779C32.158 79.7085 31.2482 78.0971 30.5643 76.3864C30.2373 75.5575 29.9794 74.703 29.7932 73.8316C29.7728 73.7314 29.7582 73.6296 29.7411 73.5289C29.726 73.4371 29.7 73.1774 29.744 73.5596C29.7345 73.4749 29.7227 73.3903 29.7123 73.3056C29.4388 71.0347 29.295 68.7445 29.1507 66.4627C28.9842 63.8375 28.8361 61.2047 28.8195 58.5734C28.8162 58.0625 28.8195 57.551 28.8408 57.0406C28.8489 56.858 28.8569 56.6749 28.8763 56.4932C28.9323 56.131 29.0401 55.7787 29.1966 55.4472C29.4767 54.887 30.3869 54.4296 30.9698 54.8241C31.5209 55.1969 31.7267 56.233 31.9022 56.9057C32.267 58.3193 34.4569 57.7199 34.0917 56.3021H34.0941Z" fill="white"/>
<path d="M37.4029 103.955C37.9635 101.583 38.4626 99.1967 38.9787 96.8142C39.2328 95.6385 39.4887 94.4634 39.756 93.2906C39.9435 92.2087 40.265 91.1544 40.7131 90.152C41.3802 88.8548 39.4216 87.7042 38.7521 89.0057C37.6555 91.1389 37.3328 93.6955 36.8309 96.017C36.301 98.4638 35.7901 100.915 35.2129 103.35C34.877 104.769 37.066 105.378 37.4029 103.954V103.955Z" fill="white"/>
<path d="M34.4319 104.611C36.9076 105.941 39.5383 106.959 42.2639 107.644C45.4374 108.505 48.7004 108.995 51.987 109.102C53.4488 109.143 53.4479 106.872 51.987 106.831C48.904 106.728 45.8436 106.266 42.8676 105.454C40.3307 104.825 37.8817 103.883 35.5767 102.651C34.2994 101.937 33.1531 103.898 34.4304 104.612L34.4319 104.611Z" fill="white"/>
<path d="M50.8922 107.665C50.4551 110.669 50.0038 113.67 49.5903 116.677C49.5205 116.967 49.5636 117.272 49.711 117.532C49.8583 117.791 50.0988 117.985 50.3837 118.073C50.6739 118.151 50.9832 118.111 51.2446 117.963C51.5059 117.815 51.6984 117.569 51.7802 117.28C52.1932 114.273 52.6451 111.272 53.0817 108.269C53.152 107.979 53.1091 107.673 52.9618 107.414C52.8145 107.154 52.5738 106.961 52.2888 106.873C51.9985 106.795 51.6893 106.834 51.4279 106.983C51.1665 107.131 50.9741 107.376 50.8922 107.665Z" fill="white"/>
<path d="M112.035 42.3287C112.015 42.4102 111.969 42.4827 111.903 42.5349C111.837 42.5872 111.756 42.6161 111.672 42.6172C111.588 42.6183 111.506 42.5914 111.439 42.5409C111.373 42.4904 111.324 42.4191 111.302 42.3381C110.888 40.741 110.245 38.8339 109.268 37.6971C108.077 36.31 106.355 35.721 104.76 35.3789C104.677 35.3595 104.602 35.3125 104.549 35.2456C104.496 35.1787 104.467 35.0958 104.467 35.0104C104.467 34.925 104.496 34.8421 104.549 34.7752C104.602 34.7083 104.677 34.6613 104.76 34.6418C106.34 34.3069 108.082 33.7169 109.24 32.4656C110.343 31.2758 110.965 28.881 111.314 27.2559C111.333 27.1729 111.379 27.0987 111.445 27.0453C111.511 26.9918 111.594 26.9622 111.679 26.9612C111.764 26.9602 111.847 26.9879 111.914 27.0398C111.981 27.0918 112.029 27.1649 112.05 27.2474C112.439 28.8724 113.129 31.2734 114.234 32.4656C115.381 33.7032 117.038 34.2936 118.57 34.6305C118.653 34.6505 118.727 34.6981 118.779 34.7654C118.832 34.8327 118.86 34.9159 118.859 35.0013C118.859 35.0867 118.829 35.1693 118.776 35.2359C118.722 35.3024 118.647 35.3488 118.564 35.3676C116.929 35.6954 115.136 36.257 113.945 37.6436C112.971 38.7809 112.41 40.7178 112.035 42.3287Z" fill="#0094C4"/>
<path d="M9.51299 88.3969C9.492 88.4881 9.44096 88.5697 9.36806 88.6285C9.29516 88.6872 9.20462 88.7198 9.11098 88.721C9.01734 88.7221 8.92603 88.6918 8.85171 88.6348C8.77739 88.5778 8.72437 88.4975 8.70116 88.4068C8.24225 86.6379 7.53025 84.5246 6.44828 83.2647C5.12834 81.7281 3.2213 81.0752 1.45287 80.6958C1.3596 80.6756 1.27605 80.6241 1.21613 80.5498C1.15621 80.4755 1.12354 80.383 1.12354 80.2875C1.12354 80.1921 1.15621 80.0995 1.21613 80.0253C1.27605 79.951 1.3596 79.8994 1.45287 79.8793C3.20332 79.5083 5.13402 78.8545 6.41705 77.4698C7.63906 76.1513 8.32883 73.4958 8.71487 71.698C8.7348 71.6053 8.78563 71.5221 8.85905 71.4621C8.93246 71.4021 9.02409 71.3688 9.11891 71.3677C9.21372 71.3666 9.3061 71.3978 9.38089 71.4561C9.45567 71.5144 9.50842 71.5963 9.53049 71.6886C9.96053 73.4887 10.7265 76.1494 11.9504 77.4703C13.2211 78.8422 15.0577 79.4956 16.7546 79.8684C16.848 79.8891 16.9315 79.9411 16.9911 80.0159C17.0507 80.0908 17.0828 80.1837 17.0821 80.2794C17.0813 80.375 17.0478 80.4675 16.9871 80.5414C16.9264 80.6153 16.8422 80.6661 16.7485 80.6854C14.9361 81.0487 12.9491 81.6709 11.6301 83.207C10.55 84.4654 9.92884 86.6119 9.51299 88.3969Z" fill="#0094C4"/>
<path d="M110.941 42.027L110.893 42.141L111.185 41.64C112.125 42.1824 112.498 42.1982 112.304 41.6873C112.273 41.569 112.239 41.4512 112.204 41.3339C112.135 41.0926 112.061 40.8527 111.983 40.6143C111.813 40.0986 111.618 39.5934 111.403 39.0952C111.053 38.2373 110.56 37.4447 109.946 36.751C109.298 36.0639 108.52 35.5118 107.657 35.1264C107.194 34.9128 106.717 34.7302 106.23 34.58C105.809 34.4513 105.353 34.3931 104.944 34.236L105.445 34.5284V35.4864L104.944 35.7788C105.393 35.608 105.89 35.5451 106.352 35.4003C106.88 35.2358 107.396 35.0346 107.897 34.7981C108.883 34.3492 109.745 33.6684 110.41 32.8139C110.966 32.0268 111.396 31.158 111.684 30.2388C112.001 29.3281 112.114 28.3318 112.453 27.4381L112.161 27.9391L111.2 27.932L110.908 27.431C111.248 28.267 111.381 29.2084 111.686 30.0647C111.995 31.0213 112.444 31.9272 113.017 32.7533C113.657 33.5963 114.486 34.2781 115.437 34.7446C115.907 34.9798 116.394 35.182 116.892 35.3497C117.381 35.5143 117.911 35.5862 118.388 35.7717L117.887 35.4793L117.882 34.5222L118.383 34.2299C117.963 34.3841 117.496 34.4366 117.064 34.561C116.564 34.7056 116.076 34.8834 115.6 35.0933C114.721 35.4641 113.928 36.0116 113.27 36.7018C111.937 38.1447 111.377 40.1615 110.94 42.0274C110.605 43.4467 112.794 44.0551 113.13 42.6311C113.502 41.05 113.908 39.1978 115.138 38.0421C115.746 37.5081 116.462 37.112 117.237 36.8811C118.047 36.6147 119.253 36.6081 119.754 35.8256C119.885 35.6178 119.963 35.3818 119.983 35.1373C120.003 34.8929 119.964 34.6473 119.87 34.421C119.775 34.1948 119.627 33.9945 119.439 33.8371C119.251 33.6797 119.028 33.5697 118.789 33.5164C117.973 33.3332 117.179 33.0601 116.423 32.7023C115.736 32.3664 115.147 31.8582 114.714 31.2271C114.297 30.5414 113.967 29.8064 113.732 29.0391C113.555 28.2431 113.325 27.4598 113.044 26.6944C112.936 26.4711 112.775 26.2778 112.575 26.1313C112.375 25.9848 112.142 25.8897 111.897 25.8543C111.651 25.819 111.401 25.8444 111.168 25.9285C110.934 26.0125 110.725 26.1525 110.559 26.3363C110.028 26.9182 109.981 28.0522 109.767 28.7912C109.562 29.5669 109.266 30.3156 108.885 31.0218C108.076 32.4373 106.487 33.0561 104.974 33.4289C104.544 33.4813 104.138 33.6507 103.798 33.9186C103.609 34.1023 103.47 34.3321 103.395 34.5856C103.32 34.8391 103.313 35.1075 103.373 35.3648C103.637 36.4123 104.673 36.4875 105.543 36.7463C106.423 36.9745 107.243 37.3918 107.945 37.9692C108.587 38.5769 109.084 39.3204 109.402 40.1455C109.595 40.6147 109.764 41.0934 109.909 41.5799C110.011 42.1245 110.196 42.65 110.459 43.1378C110.619 43.3571 110.835 43.5284 111.086 43.6329C111.336 43.7374 111.61 43.7712 111.878 43.7306C112.17 43.6847 112.443 43.5568 112.665 43.3618C112.887 43.1668 113.049 42.9127 113.132 42.6292C113.21 42.3389 113.17 42.0296 113.022 41.7683C112.874 41.5069 112.628 41.3145 112.339 41.2326C112.049 41.1592 111.741 41.2009 111.48 41.3489C111.22 41.4969 111.027 41.7398 110.941 42.027Z" fill="white"/>
<path d="M8.41775 88.095L8.42058 88.0287L8.82792 87.6214C8.94827 87.5853 9.0749 87.5751 9.19949 87.5914C9.32407 87.6077 9.4438 87.6502 9.55081 87.716L9.84271 88.217C9.45098 87.2604 9.26506 86.2173 8.86719 85.2536C8.47208 84.2113 7.90449 83.243 7.18817 82.389C6.46701 81.5974 5.58913 80.9644 4.61028 80.5302C4.11845 80.3043 3.61281 80.1098 3.09638 79.9478C2.87402 79.8787 2.64977 79.8163 2.42411 79.7586C2.28502 79.7229 2.14545 79.6894 2.00542 79.6578C1.92547 79.6394 1.72866 79.5386 1.81618 79.6044L2.22352 80.0117C2.27224 80.193 2.27224 80.3839 2.22352 80.5652L1.81618 80.9725C1.69933 81.0596 1.93493 80.9366 2.0111 80.9196C2.15302 80.8869 2.29779 80.8528 2.44067 80.8169C2.70245 80.7507 2.96202 80.6773 3.21938 80.5969C3.77665 80.4215 4.32147 80.2088 4.85014 79.9601C5.9214 79.4776 6.86089 78.7445 7.58936 77.8227C8.22497 76.9323 8.71344 75.9457 9.03608 74.9004C9.20592 74.4046 9.35258 73.9007 9.48505 73.394C9.55412 73.1282 9.61956 72.8616 9.68138 72.5945C9.70441 72.4936 9.72727 72.3925 9.74998 72.2913C9.76607 72.2184 9.78215 72.1451 9.79729 72.0722C9.81337 71.9801 9.81748 71.9765 9.80959 72.0613L9.40226 72.4687C9.28262 72.5024 9.15738 72.5113 9.03416 72.4951C8.91094 72.4788 8.79231 72.4376 8.68552 72.374L8.39362 71.873C8.75979 72.814 8.91402 73.8525 9.25891 74.8095C9.59285 75.8397 10.0756 76.8154 10.6919 77.7058C11.3824 78.6151 12.2727 79.3535 13.2939 79.8641C13.8428 80.142 14.4122 80.3774 14.9971 80.568C15.2529 80.6523 15.5113 80.7287 15.7725 80.7975C15.8863 80.829 16.0008 80.858 16.1159 80.8845C16.2006 80.9049 16.4741 81.0208 16.3965 80.9621L15.9892 80.5548C15.94 80.3741 15.9385 80.1837 15.9849 80.0022L16.3922 79.5949C16.4802 79.5305 16.3558 79.6138 16.2801 79.6252C16.1656 79.6422 16.0502 79.6725 15.9371 79.6994C15.676 79.7591 15.4164 79.8248 15.1584 79.8967C14.628 80.0479 14.1082 80.2339 13.6024 80.4536C12.6037 80.8646 11.7024 81.4808 10.9568 82.2622C9.50539 83.8423 8.9003 86.0559 8.42011 88.095C8.08563 89.5143 10.2751 90.1227 10.6101 88.6987C11.0221 86.9482 11.4744 84.8898 12.8251 83.6011C13.4974 82.9946 14.2933 82.5413 15.1579 82.2726C16.0265 81.9783 17.3999 81.9746 17.9459 81.1485C18.6082 80.1494 17.9747 79.0097 16.8904 78.7357C15.9853 78.5398 15.108 78.232 14.2789 77.8194C13.5189 77.4429 12.8676 76.8786 12.3865 76.1801C11.9418 75.4558 11.5869 74.68 11.3296 73.87C11.0458 73.035 10.884 72.1616 10.6049 71.3285C10.5184 71.0655 10.3635 70.8302 10.1561 70.6468C9.94878 70.4634 9.69636 70.3384 9.42478 70.2847C9.15319 70.231 8.8722 70.2504 8.61062 70.3411C8.34903 70.4317 8.11625 70.5903 7.93613 70.8005C7.69144 71.1544 7.53802 71.5633 7.48953 71.9908C7.38214 72.454 7.26529 72.9153 7.13377 73.3723C6.90926 74.2267 6.58966 75.0534 6.18095 75.8366C5.31803 77.4002 3.67355 78.1406 2.01062 78.5806C1.54408 78.6516 1.09182 78.7965 0.670819 79.0097C0.447269 79.161 0.267699 79.3688 0.150304 79.6119C0.0329091 79.855 -0.018138 80.1248 0.00233573 80.3939C0.0676228 81.6827 1.35539 81.7986 2.32381 82.0848C3.29321 82.3379 4.19975 82.7889 4.98639 83.4095C5.75735 84.1092 6.35085 84.9823 6.71792 85.9566C6.92513 86.4496 7.09639 86.9605 7.25488 87.4705C7.36909 87.9769 7.52122 88.4739 7.71 88.9574C7.8385 89.2317 8.04465 89.4623 8.3029 89.6205C8.56114 89.7788 8.86015 89.8578 9.16287 89.8478C9.49317 89.8296 9.80962 89.7091 10.0684 89.503C10.3272 89.297 10.5155 89.0155 10.6072 88.6977C10.6849 88.4074 10.6453 88.0982 10.4969 87.8368C10.3486 87.5754 10.1034 87.3828 9.81432 87.3007C9.52403 87.2276 9.21673 87.2694 8.95653 87.4174C8.69632 87.5654 8.50331 87.8081 8.41775 88.095Z" fill="white"/>
</g>
<defs>
<clipPath id="clip0_122_56">
<rect width="120" height="120" fill="white"/>
</clipPath>
</defs>
</svg>
