<svg width="100" height="100" viewBox="0 0 100 100" fill="none" xmlns="http://www.w3.org/2000/svg">
<rect width="100" height="100" rx="50" fill="#0094C4"/>
<path d="M26.6986 44.3673H27.7726C27.8134 39.3388 30.7536 34.7444 35.3018 32.7465C39.7514 30.7918 45.0439 31.642 48.7855 34.9118C49.1895 35.265 49.7922 35.265 50.1965 34.9118C53.938 31.642 59.2305 30.7921 63.6801 32.7465C70.1057 35.5691 72.9756 43.2335 70.0775 49.8317C67.4026 55.9212 52.6578 66.7735 49.4911 69.0557C46.3242 66.7735 31.5796 55.9212 28.9048 49.8317C28.6923 49.3479 28.1658 49.1008 27.6697 49.2222C27.6098 49.2367 27.5504 49.2558 27.4921 49.2813C26.9501 49.5196 26.7035 50.1519 26.9417 50.694C30.1662 58.0341 48.0941 70.7012 48.8556 71.2368C49.0382 71.3652 49.2539 71.4316 49.472 71.4316C49.4801 71.4316 49.4882 71.4316 49.4965 71.4316C49.7197 71.4345 49.9405 71.3682 50.1272 71.2371C50.8887 70.7015 68.8166 58.0344 72.041 50.6942C75.4148 43.0137 72.0513 34.0818 64.5429 30.7837C61.9248 29.6335 59.0471 29.2789 56.2205 29.7576C53.7726 30.1724 51.4641 31.1899 49.4917 32.7172C47.5192 31.1901 45.2105 30.1724 42.7626 29.7576C39.9362 29.2787 37.0583 29.6338 34.4401 30.7837C31.6116 32.0261 29.2854 34.0966 27.7127 36.7711C26.21 39.3267 25.4993 42.2471 25.6481 45.2282C25.7461 44.7372 26.1794 44.3673 26.6992 44.3673H26.6986Z" fill="white"/>
<path d="M26.6986 46.5116H31.4725C31.7567 46.5116 32.0296 46.3985 32.2305 46.1976L32.8647 45.5634L35.286 43.1424L36.1321 45.6292L38.5427 52.7147C38.6802 53.1187 39.0444 53.4029 39.4699 53.4378C39.4995 53.4402 39.5287 53.4413 39.558 53.4413C39.9507 53.4413 40.3152 53.2256 40.5027 52.8753L44.2964 45.7931L46.9704 40.8009L49.1516 45.8906L49.424 46.5261C49.5929 46.9202 49.9805 47.1759 50.4095 47.1759H56.9594C56.8732 46.8689 56.8262 46.5457 56.8262 46.2113C56.8262 45.7982 56.8974 45.4011 57.0271 45.0315H51.1165L48.0634 37.9073C47.9012 37.5286 47.5361 37.2764 47.1246 37.2586C46.7118 37.2414 46.3276 37.4604 46.1329 37.8235L41.8899 45.7447L39.778 49.6877L38.4129 45.6749L36.7615 40.8207C36.6422 40.4702 36.3502 40.2059 35.9895 40.1218C35.629 40.038 35.2503 40.146 34.9884 40.4079L31.029 44.3672H26.6992C26.1794 44.3672 25.7464 44.7371 25.6481 45.2282C25.6344 45.2964 25.6271 45.367 25.6271 45.4396C25.6271 46.0316 26.1072 46.5116 26.6992 46.5116H26.6986Z" fill="white"/>
<path d="M60.3993 49.785C62.3699 49.785 63.973 48.1819 63.973 46.2113C63.973 44.2408 62.3699 42.6377 60.3993 42.6377C58.8422 42.6377 57.5152 43.6391 57.0266 45.0316C56.8969 45.4012 56.8257 45.7979 56.8257 46.2113C56.8257 46.5455 56.8727 46.8689 56.9589 47.1759C57.3809 48.6791 58.7629 49.785 60.3993 49.785ZM58.702 46.2113C58.702 45.2755 59.4635 44.514 60.3993 44.514C61.3352 44.514 62.0967 45.2755 62.0967 46.2113C62.0967 47.1472 61.3355 47.9087 60.3993 47.9087C59.4632 47.9087 58.702 47.1472 58.702 46.2113Z" fill="white"/>
</svg>
