<svg width="100" height="100" viewBox="0 0 100 100" fill="none" xmlns="http://www.w3.org/2000/svg">
<rect width="100" height="100" rx="50" fill="#0094C4"/>
<path fill-rule="evenodd" clip-rule="evenodd" d="M52.2277 28.7653C52.5238 29.4092 52.2347 30.173 51.5838 30.4667C49.3513 31.4725 47.7956 33.7121 47.7885 36.3135V36.3605C47.8026 39.8996 50.679 42.769 54.2252 42.769C57.5457 42.769 60.2788 40.2545 60.6266 37.0303C60.6994 36.3206 61.3316 35.8083 62.0436 35.8835C62.7463 35.9634 63.2633 36.5932 63.1834 37.3052C62.9813 39.2111 62.1846 40.9336 60.9838 42.2943C62.9131 42.729 64.6098 43.7889 65.8577 45.2365C66.3136 45.7793 66.2548 46.5901 65.7096 47.053C65.1738 47.516 64.356 47.4478 63.9001 46.912C62.711 45.5232 60.9556 44.6537 58.998 44.6537C55.4448 44.6537 52.5614 47.5277 52.5614 51.0903C52.5614 52.1572 52.8246 53.163 53.2781 54.0466C54.2839 53.9127 55.332 54.2675 56.0417 55.0947C56.3637 55.4684 56.6574 55.8585 56.9253 56.2462C57.3624 56.8854 57.5293 57.621 57.4564 58.3307C58.0392 58.6926 58.5092 59.2566 58.7513 59.9616C59.0403 60.7982 59.2542 61.6089 59.4351 62.321C59.5761 62.8709 59.562 63.4208 59.421 63.9284C59.7571 64.2245 60.032 64.6005 60.22 65.0399C60.354 65.3407 60.4409 65.4512 60.4691 65.4747C60.5561 65.5358 60.636 65.6039 60.7159 65.6697C60.9579 65.5757 61.2117 65.5146 61.482 65.4817C61.7076 65.4559 61.9778 65.4089 62.2857 65.3407C63.3573 65.1081 64.4195 65.4559 65.1409 66.1797C65.6932 65.8436 66.0997 65.3548 66.3018 64.7438C66.558 63.9636 66.5368 62.845 65.7989 61.4115C65.4699 60.7817 65.7167 60.0039 66.3488 59.6819C66.981 59.3529 67.7565 59.602 68.0855 60.2342C68.6095 61.2517 68.9127 62.2505 68.9973 63.1952C69.7822 62.2622 70.607 61.0097 71.2838 59.3482C71.5517 58.6902 72.3014 58.3777 72.9664 58.6432C73.6244 58.9111 73.937 59.6631 73.6714 60.3188C72.8654 62.2975 71.8666 63.8062 70.9031 64.9318C71.5259 65.0117 72.1909 65.1668 72.9006 65.4136C73.5727 65.6415 73.9276 66.3794 73.6996 67.0492C73.4646 67.7213 72.7267 68.0761 72.057 67.8411C70.7762 67.3993 69.8644 67.3876 68.9785 67.5662C68.1536 67.7354 67.3429 68.0761 66.2078 68.5508L66.041 68.619C65.9399 69.9467 64.9811 71.1147 63.6064 71.4084C63.1317 71.5095 62.6687 71.5894 62.2175 71.6434C61.3057 71.7586 60.4409 71.4554 59.8041 70.9008C58.857 71.2674 57.7596 71.1687 56.8736 70.546C55.6469 69.6741 54.949 68.5062 54.5142 67.4816C54.2181 66.7977 54.1923 66.0739 54.3803 65.4159C53.9244 65.0211 53.5836 64.483 53.4215 63.8555C53.2546 63.1905 53.0807 62.5748 52.8786 61.9708C52.7235 61.529 52.6789 61.0731 52.7235 60.6384C52.3757 60.4175 52.0514 60.1214 51.8047 59.7524C51.6637 59.5456 51.5109 59.3506 51.3417 59.1579C50.4511 58.1239 50.3571 56.6763 51.008 55.5624C49.8471 54.4226 48.2585 53.7176 46.5031 53.7176C44.4445 53.7176 42.6068 54.6835 41.4341 56.1898C41.3472 56.3167 41.2532 56.4389 41.1592 56.5658C40.4683 57.5928 40.0664 58.8242 40.0664 60.1519C40.0664 61.3786 40.4072 62.5254 41.0041 63.4983C41.373 64.1023 41.178 64.8989 40.5693 65.2679C39.9654 65.6368 39.1734 65.4418 38.8068 64.8378C37.9679 63.4701 37.4932 61.8674 37.4932 60.1519C37.4932 59.8958 37.5073 59.6349 37.5284 59.3811C36.4498 59.8441 35.2536 60.0979 34.0081 60.0979C33.383 60.0979 32.7673 60.0297 32.1775 59.9099C31.4819 59.7689 31.0377 59.085 31.1787 58.3871C31.3197 57.6891 32.0036 57.2426 32.7015 57.3883C33.1245 57.4753 33.5593 57.5246 34.0105 57.5246C36.0691 57.5246 37.8974 56.5517 39.0794 55.0501C39.1664 54.9232 39.2604 54.7963 39.3544 54.6741C40.0453 53.6495 40.4471 52.4157 40.4471 51.088C40.4471 47.5254 37.5637 44.6513 34.0105 44.6513C32.1187 44.6513 30.422 45.4621 29.2423 46.7616C28.7676 47.2857 27.9498 47.3256 27.4258 46.8486C26.8947 46.3715 26.8571 45.5537 27.3318 45.032C28.5585 43.6855 30.187 42.7079 32.0247 42.2919C30.8591 40.9759 30.0742 39.3074 29.8463 37.4768C29.7523 36.7671 30.2552 36.1232 30.9578 36.0362C31.6628 35.9493 32.3067 36.4451 32.3984 37.1478C32.7955 40.3203 35.5027 42.7666 38.781 42.7666C42.3271 42.7666 45.2035 39.8973 45.2176 36.3582V36.3112C45.2106 33.7497 43.7089 31.543 41.5305 30.5114C40.8866 30.2106 40.6116 29.4398 40.9195 28.7959C41.2203 28.159 41.9864 27.8841 42.6303 28.1872C44.24 28.951 45.5936 30.173 46.5054 31.6934C47.4525 30.1236 48.8531 28.8687 50.5357 28.112C51.1796 27.823 51.9433 28.112 52.2324 28.763L52.2277 28.7653ZM42.9804 51.8635C44.0614 51.4005 45.2529 51.1444 46.5007 51.1444C47.7486 51.1444 48.94 51.3982 50.021 51.8635C49.9999 51.6073 49.9858 51.3465 49.9858 51.0927C49.9858 48.8061 50.8365 46.7217 52.2394 45.1307C49.8048 44.5808 47.7486 43.0533 46.5007 40.9806C45.2529 43.0533 43.1943 44.5808 40.762 45.1307C42.165 46.7193 43.0157 48.8061 43.0157 51.0927C43.0157 51.3465 43.0016 51.6073 42.9804 51.8635ZM46.5007 46.6394C46.1459 46.6394 45.8568 46.9285 45.8568 47.2833C45.8568 47.6382 46.1459 47.9272 46.5007 47.9272C46.8556 47.9272 47.1446 47.6382 47.1446 47.2833C47.1446 46.9285 46.8556 46.6394 46.5007 46.6394ZM43.2836 47.2833C43.2836 45.5067 44.7241 44.0662 46.5007 44.0662C48.2773 44.0662 49.7179 45.5091 49.7179 47.2833C49.7179 49.0576 48.2773 50.5005 46.5007 50.5005C44.7241 50.5005 43.2836 49.0599 43.2836 47.2833ZM55.4049 60.6313L55.5576 60.4433L55.7997 60.4363C56.0276 60.4292 56.2344 60.5702 56.3167 60.7911C56.5705 61.5361 56.7655 62.2646 56.9394 62.9578C56.9935 63.1576 56.9253 63.3597 56.7773 63.4866L56.5893 63.6487L56.3543 63.6135C56.1475 63.5806 55.9665 63.4325 55.9101 63.2187C55.7362 62.5348 55.5482 61.8369 55.3085 61.1413C55.2498 60.9603 55.2874 60.7723 55.4025 60.6313H55.4049ZM57.4353 65.7332L57.2003 65.6979L57.0193 65.8601C56.8454 66.0081 56.7843 66.2572 56.8783 66.4687C57.2144 67.2489 57.6632 67.9516 58.3612 68.4404C58.5962 68.6096 58.9158 68.5532 59.085 68.3276L59.2542 68.1137L59.1719 67.8505C59.1367 67.7448 59.0709 67.6437 58.9722 67.5756C58.4951 67.2419 58.1473 66.7319 57.8512 66.0528C57.7784 65.8718 57.6186 65.7567 57.4353 65.7308V65.7332ZM61.4232 68.2477L61.2564 68.4615L61.3433 68.7224C61.4162 68.9644 61.6535 69.1242 61.9144 69.0913C62.2716 69.0514 62.6523 68.9832 63.0565 68.8986C63.3432 68.8375 63.5241 68.5485 63.4654 68.2665C63.4066 67.9774 63.1176 67.7988 62.8356 67.8576C62.4525 67.9375 62.1118 67.9986 61.7875 68.0385C61.6394 68.0573 61.5125 68.1302 61.4256 68.2453L61.4232 68.2477ZM54.3779 58.5328L54.6176 58.5257L54.7774 58.3307C54.9184 58.1568 54.9396 57.8959 54.7986 57.7009C54.5847 57.386 54.3497 57.0781 54.0889 56.775C53.9009 56.5541 53.5648 56.5282 53.3439 56.7209C53.123 56.916 53.0972 57.2497 53.2899 57.4706C53.5249 57.7408 53.7317 58.0158 53.9267 58.2978C54.0278 58.4529 54.2017 58.5328 54.3756 58.5328H54.3779ZM60.4738 65.4841C60.4738 65.4841 60.4668 65.4841 60.4668 65.477C60.4668 65.477 60.4691 65.4794 60.4738 65.4841Z" fill="white"/>
</svg>
