<svg width="100" height="100" viewBox="0 0 100 100" fill="none" xmlns="http://www.w3.org/2000/svg">
<rect width="100" height="100" rx="50" fill="#0094C4"/>
<g clip-path="url(#clip0_87_534)">
<path d="M61.542 29.8003C61.542 29.8003 61.6515 29.7765 61.8659 29.7717C62.0802 29.7717 62.404 29.7955 62.8184 29.8956C63.2327 29.9956 63.7328 30.1767 64.2709 30.5054C64.8043 30.8341 65.3663 31.3058 65.8712 31.9537C66.0378 32.168 66.2045 32.4015 66.3522 32.654C66.5046 32.9017 66.6427 33.1733 66.7713 33.4591C66.9046 33.745 67.0189 34.0451 67.1189 34.3643C67.2189 34.6835 67.2952 35.017 67.3523 35.3647C67.3761 35.7173 67.4428 36.0746 67.4857 36.4462C67.5285 36.8225 67.5333 37.1941 67.4714 37.58C67.4618 37.7706 67.4428 37.9659 67.4285 38.1612C67.4142 38.3566 67.4047 38.5567 67.3904 38.7568C67.3713 38.9568 67.3523 39.1617 67.338 39.3666C67.3285 39.4714 67.3237 39.5714 67.3094 39.6762C67.2952 39.781 67.2809 39.8858 67.2713 39.9906C67.1761 40.8339 66.9141 41.6771 66.7141 42.5728C66.6522 43.0349 66.4569 43.4636 66.2569 43.8972C66.1521 44.1116 66.0426 44.3259 65.9521 44.5499C65.8521 44.769 65.7569 44.9929 65.6902 45.2359C65.2854 46.1363 64.7377 47.0033 64.0947 47.8371L63.9614 47.9847L63.8233 48.1277C63.7328 48.2277 63.647 48.323 63.5613 48.4278C63.4756 48.5326 63.3851 48.6279 63.2994 48.7279L63.166 48.8804L63.0994 48.9566L63.066 48.9947C63.066 48.9947 63.047 49.0185 63.0374 49.0328V49.0805V49.1043V49.1138V49.1377V49.2377C63.0374 49.3711 63.0374 49.5045 63.0422 49.6426C63.0422 49.9142 63.0422 50.1857 63.0422 50.4573C62.8803 51.5483 62.885 52.6678 62.8993 53.8255C62.6612 54.9641 62.5945 56.1408 62.6374 57.3557C62.5279 58.561 62.3183 59.7758 62.204 61.0383C62.0278 62.2865 61.8325 63.5632 61.4944 64.8448C61.3944 65.4975 61.2467 66.1549 61.0324 66.798C60.8181 67.4412 60.5466 68.0843 60.1752 68.6894C60.037 69.0181 59.8656 69.3373 59.6322 69.6422C59.5179 69.7946 59.3846 69.9423 59.2274 70.0757C59.0702 70.2091 58.8893 70.333 58.6702 70.4187C58.4511 70.5045 58.1939 70.5474 57.9511 70.514C57.7034 70.4854 57.4796 70.3854 57.2938 70.2663C56.9223 70.0233 56.6747 69.7089 56.4651 69.3945C56.0603 68.7561 55.746 68.1034 55.465 67.4317C55.1888 66.7599 54.9602 66.0644 54.8268 65.3498C54.4744 63.9396 54.1744 62.5009 53.9743 61.0335C53.8076 59.5567 53.6981 58.0703 53.4552 56.5696C53.4124 56.1932 53.3743 55.8169 53.3409 55.4357C53.3219 55.2452 53.3076 55.0546 53.2885 54.8641C53.2742 54.6973 53.26 54.5258 53.2504 54.3591V54.3352C53.2504 54.3352 53.2504 54.3162 53.2361 54.321H53.2123H53.198L53.079 54.34C52.9837 54.3543 52.8837 54.3734 52.7885 54.3829L52.4932 54.4115C52.2979 54.4305 52.1027 54.4448 51.9074 54.4639C50.35 54.7402 48.7308 54.6449 47.1544 54.3448L46.821 54.2924H46.7972C46.7972 54.2924 46.7781 54.2828 46.7829 54.2924V54.3352L46.7734 54.3591V54.3686V54.3829L46.7639 54.4591L46.74 54.7545C46.721 54.9498 46.7067 55.1499 46.6877 55.35C46.6162 56.1408 46.5448 56.9364 46.4972 57.7368C46.3162 59.328 46.1876 60.9478 45.8447 62.5485C45.6828 63.3489 45.5018 64.1445 45.3018 64.9353C45.1017 65.7261 44.8922 66.5074 44.6493 67.2935C44.5302 67.6842 44.3826 68.07 44.2016 68.4464C44.0206 68.8228 43.8111 69.1896 43.5396 69.5374C43.4015 69.7089 43.2539 69.8756 43.0729 70.0328C42.8967 70.1853 42.6824 70.3234 42.4347 70.414C42.3109 70.4568 42.1728 70.4854 42.0347 70.4997C41.8965 70.5092 41.7537 70.4997 41.6203 70.4664C41.3489 70.4092 41.1203 70.2806 40.9298 70.1424C40.7488 69.9852 40.6011 69.8137 40.4678 69.6422C40.3344 69.4707 40.2154 69.2944 40.1106 69.1134C39.8963 68.7561 39.7105 68.394 39.5391 68.0319C39.2057 67.2983 38.9343 66.5551 38.7438 65.7928C38.3199 64.2826 38.1199 62.7581 37.8246 61.267C37.5769 59.771 37.3817 58.2799 37.3055 56.803C36.9864 55.3452 37.1293 53.8684 37.015 52.4344C37.0197 51.715 36.9864 51.0004 36.9578 50.2906C36.9435 49.938 36.9245 49.5855 36.9102 49.2329V49.1186L36.9054 49.09C36.9054 49.0805 36.8959 49.0757 36.8911 49.071L36.8483 49.0233C36.7292 48.8899 36.6054 48.7565 36.4911 48.6231C36.372 48.4897 36.2577 48.3516 36.1482 48.2134C36.091 48.142 36.0339 48.0753 35.9815 48.0038L35.8243 47.7894C35.7195 47.6465 35.6148 47.5036 35.5195 47.3559C35.4243 47.2082 35.329 47.0605 35.2385 46.9081C35.1385 46.7604 35.0575 46.6079 34.9671 46.4555C34.8813 46.303 34.7908 46.1553 34.7051 46.0029C34.5432 45.6932 34.3622 45.3979 34.2051 45.093C34.1336 44.9357 34.0622 44.7785 33.986 44.6261C33.9193 44.4689 33.8526 44.3117 33.786 44.1497L33.6859 43.9162C33.6526 43.8352 33.624 43.759 33.5955 43.678C33.5335 43.5208 33.4764 43.3588 33.4145 43.2016C33.3526 43.0444 33.3097 42.8777 33.2573 42.7205C33.2097 42.5585 33.1573 42.3965 33.1144 42.2345C33.0763 42.0725 33.0382 41.9058 33.0001 41.7438C32.962 41.5818 32.9287 41.4199 32.9049 41.2531C32.862 41.0911 32.8192 40.9339 32.7811 40.7719C32.762 40.691 32.743 40.61 32.7287 40.529L32.6906 40.286C32.6429 39.9621 32.6001 39.6333 32.581 39.3094C32.5667 39.1474 32.5572 38.9854 32.5429 38.8234C32.5286 38.6615 32.5286 38.4995 32.5191 38.3375C32.5096 38.1755 32.5001 38.0183 32.4905 37.8563C32.481 37.6991 32.4763 37.5372 32.462 37.3799C32.462 37.2227 32.4572 37.0607 32.4524 36.9035C32.4477 36.7463 32.4524 36.5796 32.4572 36.4224C32.4763 36.0984 32.5001 35.7792 32.5525 35.46C32.6477 34.8264 32.8239 34.2118 33.062 33.6306C33.3668 33.078 33.6621 32.5396 34.0098 32.0347C34.0908 31.906 34.186 31.7869 34.2765 31.6631C34.3717 31.544 34.467 31.4249 34.567 31.3105C34.767 31.0818 34.9861 30.8675 35.2242 30.6769C35.7005 30.3053 36.2196 29.9861 36.7816 29.7717C37.0578 29.6622 37.3531 29.5859 37.6436 29.5335C37.9389 29.4859 38.2342 29.4764 38.5247 29.4954C39.1009 29.4954 39.6582 29.605 40.1916 29.7479C40.7202 29.8956 41.225 30.0814 41.7203 30.2577C42.2109 30.4577 42.649 30.7341 43.0777 30.9961C43.5063 31.2581 43.9302 31.5106 44.4016 31.6631C44.8303 31.887 45.2256 32.1538 45.6209 32.4015C46.0161 32.6445 46.4162 32.8731 46.8496 33.0018C47.2782 33.1352 47.6735 33.3019 48.064 33.4543C48.4546 33.6068 48.8498 33.7402 49.2451 33.7974C49.6404 33.8545 50.031 33.8593 50.4167 33.8259C50.6072 33.8117 50.7977 33.7831 50.9882 33.7545C51.174 33.7164 51.3597 33.6878 51.5407 33.6354C51.9455 33.5353 52.336 33.4067 52.7123 33.2638C53.0837 33.1209 53.4457 32.9684 53.7886 32.8064C54.4792 32.4872 55.1078 32.149 55.6984 31.8346C56.8747 31.2057 57.8891 30.6769 58.7559 30.3339C59.6179 29.9861 60.3276 29.8384 60.8038 29.7908C61.0419 29.7717 61.2277 29.7622 61.3467 29.7717C61.4658 29.7765 61.5277 29.786 61.5277 29.7955C61.5277 29.8051 61.4515 29.8194 61.3039 29.8384C61.2658 29.8384 61.2277 29.8479 61.1801 29.8527C61.1372 29.8622 61.0848 29.867 61.0324 29.8765C60.98 29.8861 60.9181 29.8956 60.8562 29.9004C60.7943 29.9146 60.7276 29.9289 60.6562 29.9432C60.0847 30.0528 59.2655 30.3244 58.2606 30.8198C57.7558 31.0675 57.2081 31.3677 56.6033 31.7059C56.0032 32.0442 55.3459 32.4253 54.622 32.8112C53.8981 33.1971 53.1028 33.583 52.1979 33.8926C51.7455 34.0451 51.2692 34.169 50.7596 34.2404C50.5072 34.2785 50.2453 34.3024 49.9833 34.3071C49.9167 34.3071 49.85 34.3071 49.7833 34.3071C49.7166 34.3071 49.65 34.3071 49.5833 34.3024C49.4499 34.2976 49.3118 34.2785 49.1785 34.2642C48.3164 34.1499 47.4259 33.9355 46.6257 33.4639C45.7971 33.0732 44.9398 32.673 44.1254 32.1442C43.2158 31.7869 42.4109 31.2009 41.4822 30.796C41.0202 30.6007 40.544 30.4196 40.0487 30.2862C39.5534 30.1576 39.039 30.0814 38.5247 30.11C38.2675 30.1338 38.0198 30.1624 37.7674 30.21C37.515 30.2624 37.2626 30.3148 37.015 30.4006C36.5196 30.5673 36.0386 30.8198 35.6338 31.1819C35.41 31.3343 35.1957 31.5058 35.0004 31.7059C34.9004 31.8012 34.8099 31.906 34.7146 32.0108C34.6289 32.1204 34.5384 32.2252 34.4575 32.3443C34.1289 32.8064 33.8812 33.3257 33.7002 33.8736C33.4526 34.3929 33.2954 34.9646 33.224 35.5505C33.1811 35.8411 33.1716 36.1413 33.1621 36.4367C33.1621 36.5891 33.1621 36.732 33.1621 36.8892C33.1668 37.0417 33.1716 37.1941 33.1763 37.3514C33.0811 38.59 33.3049 39.8525 33.624 41.0864C33.9336 42.325 34.2908 43.578 34.8861 44.7595C35.429 45.9648 36.2196 47.0605 37.0816 48.1038C37.2007 48.2229 37.3198 48.3468 37.4388 48.4659L37.5769 48.6136L37.6627 48.7041L37.7055 48.7518C37.7055 48.7518 37.7055 48.7899 37.7103 48.8089L37.7293 49.2043C37.7484 49.5521 37.7627 49.9047 37.777 50.2572C37.8055 50.9623 37.8198 51.6721 37.8198 52.3867C37.9294 53.8112 37.9913 55.2595 38.1199 56.7173C38.3008 58.1703 38.4104 59.6519 38.6485 61.1288C38.7723 61.8672 38.8676 62.6104 38.9962 63.3536C39.1248 64.0968 39.2914 64.84 39.5581 65.5499C39.7677 66.274 39.9963 66.9981 40.2868 67.6889C40.4345 68.0319 40.5964 68.3654 40.7869 68.6751C40.9774 68.98 41.1965 69.2611 41.4441 69.4421C41.5632 69.5374 41.6822 69.5993 41.8013 69.6279C41.9156 69.6565 42.0251 69.6469 42.1442 69.6088C42.3871 69.5231 42.6443 69.2896 42.8538 69.0086C43.0681 68.7275 43.2539 68.3988 43.4158 68.0558C43.5777 67.7127 43.7158 67.3554 43.8397 66.9838C44.1683 66.2788 44.3969 65.5165 44.5779 64.7447C44.7541 63.9682 44.8827 63.1774 44.997 62.3818C45.2399 60.7953 45.4637 59.2136 45.6447 57.6367C45.7161 56.8459 45.7828 56.0598 45.8447 55.2738C45.859 55.0784 45.8733 54.8783 45.8876 54.683C45.9066 54.4258 45.9257 54.1685 45.9399 53.9112L45.978 53.3538V53.2872L45.9828 53.2681C45.9828 53.2681 45.9923 53.2681 45.9971 53.2681H46.0304L46.1685 53.2967L46.4448 53.3443C46.721 53.392 47.002 53.4396 47.2782 53.492C47.4687 53.5158 47.6592 53.5301 47.8497 53.5539C48.0402 53.573 48.2307 53.6016 48.4212 53.6159C48.6117 53.6302 48.8022 53.6492 48.9927 53.6635L49.1356 53.6778H49.2785L49.5642 53.6969C50.3215 53.7397 51.0835 53.7064 51.8312 53.6159C52.0169 53.5873 52.2027 53.5587 52.3884 53.5349L52.6646 53.4968C52.7551 53.4825 52.8504 53.4682 52.9409 53.4539C53.26 53.4015 53.5838 53.3491 53.9029 53.2967L54.0363 53.2776H54.0696L54.0791 53.2729C54.0791 53.2729 54.0791 53.2776 54.0791 53.2824V53.3014V53.3681L54.0934 53.6397L54.122 54.178C54.1315 54.3876 54.141 54.5973 54.1506 54.8069C54.1601 54.9974 54.1744 55.1833 54.1839 55.3738C54.2125 55.7502 54.241 56.1265 54.2887 56.4981C54.4601 57.9893 54.6459 59.4566 54.7887 60.9144C55.003 62.3579 55.1412 63.8062 55.6079 65.1497C55.7984 65.8309 56.0413 66.4884 56.2985 67.122C56.5556 67.7556 56.8223 68.3654 57.1081 68.9371C57.2986 69.1848 57.5081 69.4135 57.7225 69.5517C57.832 69.6184 57.9368 69.666 58.0415 69.6803C58.1463 69.6994 58.2511 69.6803 58.3606 69.647C58.5845 69.5707 58.8178 69.3706 59.0083 69.1372C59.2036 68.899 59.3655 68.6227 59.4941 68.3321C59.8561 67.7985 60.0942 67.1792 60.2847 66.5551C60.4752 65.931 60.6133 65.2974 60.7657 64.6733C61.0943 63.4251 61.3658 62.1817 61.4896 60.9382C61.6087 59.6948 61.8516 58.4943 61.9468 57.2985C61.9802 56.0979 62.2564 54.945 62.2373 53.7921C62.3278 52.6488 62.3469 51.5292 62.4136 50.443C62.3755 50.1715 62.3612 49.8999 62.3612 49.6283C62.3612 49.495 62.3612 49.3616 62.3707 49.2282L62.3802 48.9661L62.3897 48.7851C62.3897 48.7851 62.3897 48.7708 62.3993 48.7661L62.4136 48.7518L62.4469 48.7184L62.5088 48.6517L62.6279 48.5279L62.6993 48.4612L62.8374 48.3278C62.9279 48.2372 63.0232 48.1515 63.1089 48.0562C63.1946 47.9609 63.2851 47.8704 63.3708 47.7751L63.4994 47.6322C63.5423 47.5846 63.5804 47.5322 63.6185 47.4845C63.9376 47.0891 64.1947 46.6603 64.4376 46.2363C64.4948 46.1268 64.5567 46.022 64.6186 45.9171C64.6805 45.8123 64.7424 45.7075 64.7996 45.6027C64.9186 45.3931 65.052 45.193 65.1853 44.9929C65.2568 44.7642 65.3377 44.5403 65.4282 44.3259C65.5092 44.1068 65.5997 43.8972 65.6997 43.6876C65.8759 43.2636 66.0712 42.8538 66.2093 42.4298C66.5046 41.5866 66.5951 40.7291 66.7856 39.9287C66.7856 39.8239 66.7951 39.7239 66.8046 39.619C66.8141 39.519 66.8189 39.4142 66.8332 39.3141C66.857 39.1141 66.8856 38.9187 66.9189 38.7234C66.9475 38.5281 66.9713 38.3327 66.9903 38.1422C67.0094 37.9516 67.0285 37.7611 67.0237 37.5705C67.0618 37.1941 67.0808 36.8225 67.0618 36.4652C67.0427 36.1079 66.9951 35.7697 66.9475 35.4362C66.876 35.1075 66.8046 34.7883 66.7141 34.4834C66.6236 34.1785 66.5331 33.8831 66.4284 33.602C66.3093 33.3257 66.1855 33.0637 66.0474 32.8207C65.9093 32.5778 65.7616 32.3491 65.6092 32.1395C65.1472 31.5058 64.6234 31.0342 64.1233 30.7007C63.6232 30.3625 63.147 30.1671 62.7565 30.048C62.3612 29.9289 62.0468 29.8813 61.8373 29.8527C61.6277 29.8289 61.5182 29.8146 61.5182 29.8003H61.542Z" fill="white" stroke="white" stroke-width="2" stroke-miterlimit="10"/>
<path d="M63.1518 41.8629C63.1041 41.8439 63.0946 41.7295 63.1184 41.5437C63.1184 41.5151 63.1279 41.4818 63.1327 41.4437C63.1327 41.4056 63.1327 41.3675 63.1518 41.3341C63.2327 41.3246 63.0613 41.215 63.1756 41.215C63.2232 41.1864 63.2041 41.134 63.1994 41.0816C63.1899 41.0292 63.2708 41.0054 63.2232 40.9387C63.1089 40.8482 63.3994 40.8863 63.2518 40.7815C63.2327 40.7195 63.2613 40.6719 63.2851 40.6195C63.4042 40.5957 63.3184 40.5099 63.3137 40.4432C63.447 40.4146 63.4137 40.3432 63.3423 40.2574C63.5232 40.2384 63.5137 40.1669 63.3756 40.0621C63.3851 39.9954 63.4708 39.943 63.4089 39.862C63.4089 39.7906 63.3899 39.7143 63.4375 39.6476C63.3375 39.5524 63.3565 39.4857 63.4661 39.4285C63.3565 39.3332 63.4232 39.2713 63.4947 39.1998C63.5709 39.1331 63.4089 39.0283 63.5185 38.9664C63.5375 38.8901 63.5137 38.8044 63.5423 38.7234C63.6042 38.6472 63.6709 38.571 63.5613 38.4757C63.5375 38.3899 63.5042 38.2994 63.5804 38.2232C63.4566 38.1279 63.5232 38.0469 63.5994 37.9659C63.5804 37.8754 63.6804 37.7944 63.609 37.7039C63.6328 37.6134 63.5613 37.5229 63.6232 37.4323C63.6709 37.3418 63.7042 37.2513 63.6328 37.1656C63.5518 37.075 63.6709 36.9893 63.6375 36.8988C63.7614 36.813 63.5994 36.7225 63.6423 36.6367C63.628 36.551 63.709 36.4652 63.6423 36.3795C63.6185 36.2937 63.5947 36.2127 63.6423 36.127C63.4518 36.0508 63.6852 35.9602 63.6423 35.884C63.7185 35.7983 63.6232 35.7268 63.6423 35.6458C63.6042 35.5696 63.7185 35.4838 63.6423 35.4124C63.6518 35.3362 63.5709 35.2647 63.6423 35.1885C63.5423 35.1218 63.7137 35.036 63.6423 34.9741C63.6375 34.9026 63.6232 34.8359 63.6423 34.7645C63.7804 34.6835 63.6566 34.6263 63.6423 34.5644C63.6518 34.4977 63.547 34.4453 63.6423 34.3738C63.6471 34.3119 63.7042 34.2452 63.6423 34.1928C63.6137 34.1356 63.8423 34.0546 63.6423 34.0213C63.5994 33.9689 63.7804 33.8974 63.6423 33.8593C63.5137 33.8259 63.6423 33.7592 63.6423 33.7116C63.6423 33.664 63.6423 33.6163 63.6423 33.5735C63.6566 33.178 63.6947 32.9446 63.7756 32.9351C63.8614 32.9255 63.9852 33.1876 64.109 33.6544C64.1233 33.7021 64.2281 33.7402 64.1471 33.8021C64.1519 33.8545 64.2376 33.8974 64.1852 33.9593C64.3281 33.9975 64.2233 34.0689 64.2233 34.1308C64.2376 34.188 64.1995 34.2547 64.2614 34.3119C64.3471 34.3643 64.2376 34.4453 64.2995 34.5024C64.2233 34.5787 64.2471 34.6406 64.3329 34.7025C64.2567 34.7788 64.3614 34.8407 64.3662 34.9122C64.2471 34.9931 64.3376 35.0598 64.3948 35.1313C64.4472 35.2028 64.3852 35.2837 64.4233 35.36C64.4043 35.441 64.4662 35.5172 64.4472 35.5982C64.5091 35.6744 64.5376 35.7554 64.4662 35.8459C64.5091 35.9269 64.4805 36.0127 64.4853 36.0984C64.5376 36.1842 64.4853 36.2699 64.4948 36.3604C64.5234 36.4462 64.3614 36.5367 64.5043 36.6272C64.5234 36.7177 64.4853 36.8083 64.5043 36.8988C64.4853 36.9893 64.4662 37.0846 64.5043 37.1751C64.3662 37.2656 64.4519 37.3609 64.4995 37.4562C64.5329 37.5514 64.5091 37.6467 64.4853 37.7372C64.4948 37.8325 64.4853 37.923 64.4662 38.0136C64.4995 38.1088 64.39 38.1898 64.4376 38.2851C64.4853 38.3804 64.3567 38.4566 64.4091 38.5519C64.4424 38.6424 64.4567 38.7329 64.3757 38.8139C64.3662 38.8997 64.2281 38.9664 64.3329 39.0664C64.3471 39.1522 64.49 39.2617 64.29 39.3141C64.3281 39.4047 64.1709 39.4618 64.2376 39.5524C64.0852 39.6048 64.1995 39.7048 64.1805 39.781C64.1376 39.8525 64.0804 39.9144 64.1281 40.0002C64.1805 40.0859 64.0566 40.1336 64.0662 40.2098C64.1281 40.3003 63.928 40.3241 63.9995 40.4099C63.9661 40.4718 63.9804 40.5433 63.9376 40.5957C64.1043 40.71 63.9042 40.7195 63.8709 40.772C63.828 40.8244 63.9566 40.9244 63.7995 40.9339C63.9185 41.0292 63.7852 41.0483 63.7328 41.0864C63.6756 41.1245 63.7566 41.2055 63.6661 41.2245C63.7471 41.3055 63.5851 41.296 63.5994 41.3484C63.5185 41.3675 63.5661 41.4294 63.5328 41.458C63.5375 41.5056 63.5185 41.539 63.4708 41.558C63.4518 41.5866 63.4327 41.6152 63.4137 41.6438C63.2994 41.801 63.2184 41.8725 63.1708 41.8486L63.1518 41.8629Z" fill="white" stroke="white" stroke-miterlimit="10"/>
<path d="M61.1086 41.0102C61.061 40.9912 61.0419 40.8911 61.0562 40.7387C61.0562 40.7149 61.0562 40.6863 61.0657 40.6577C61.0657 40.6291 61.061 40.5958 61.0753 40.5672C61.1515 40.5672 60.9753 40.4624 61.0896 40.4671C61.1324 40.4481 61.1134 40.4004 61.1038 40.3576C61.0943 40.3147 61.1705 40.3004 61.1181 40.2385C60.9991 40.1575 61.2848 40.2051 61.1372 40.1146C61.1134 40.0622 61.1372 40.0241 61.161 39.9812C61.2753 39.9669 61.1896 39.8907 61.18 39.8383C61.3134 39.824 61.2705 39.7573 61.1991 39.6906C61.3801 39.6811 61.3658 39.6239 61.2229 39.5334C61.2277 39.481 61.3086 39.4429 61.2467 39.3714C61.2467 39.3142 61.2229 39.2523 61.2658 39.1999C61.1658 39.1189 61.18 39.0665 61.2848 39.0236C61.1753 38.9426 61.2372 38.895 61.3039 38.8426C61.3801 38.7902 61.2134 38.7044 61.3182 38.652C61.3324 38.5901 61.3086 38.5186 61.3372 38.4567C61.3944 38.3995 61.461 38.3376 61.3515 38.2566C61.3277 38.1851 61.2943 38.1137 61.3658 38.0518C61.242 37.9708 61.3039 37.9088 61.3801 37.8421C61.361 37.7707 61.4563 37.704 61.3896 37.6278C61.4134 37.5563 61.3372 37.4801 61.3991 37.4134C61.442 37.3419 61.4801 37.2704 61.4039 37.1942C61.3229 37.1228 61.442 37.0513 61.4086 36.9798C61.5325 36.9084 61.3705 36.8369 61.4086 36.7702C61.3944 36.6988 61.4753 36.6321 61.4086 36.5654C61.3848 36.4987 61.361 36.432 61.4086 36.3653C61.2181 36.3033 61.4515 36.2319 61.4086 36.1699C61.4848 36.1033 61.3896 36.0413 61.4086 35.9794C61.3705 35.9175 61.4896 35.8508 61.4086 35.7936C61.4182 35.7317 61.342 35.6745 61.4086 35.6126C61.3086 35.5601 61.4801 35.4887 61.4086 35.4363C61.4086 35.3791 61.3944 35.3219 61.4086 35.2648C61.5515 35.1981 61.4229 35.1552 61.4086 35.1028C61.4182 35.0504 61.3134 35.0075 61.4086 34.9503C61.4134 34.8979 61.4753 34.8455 61.4086 34.8027C61.3801 34.7598 61.6134 34.6836 61.4086 34.6645C61.3705 34.6264 61.5468 34.5597 61.4086 34.5359C61.2848 34.5121 61.4134 34.4549 61.4134 34.4168C61.4134 34.3787 61.4134 34.3405 61.4229 34.3024C61.4467 33.9832 61.4944 33.7879 61.5706 33.7784C61.6563 33.7689 61.7706 33.9785 61.8849 34.3548C61.8944 34.393 62.004 34.4215 61.9182 34.4739C61.9182 34.5168 62.0087 34.5502 61.9516 34.6026C62.0944 34.6312 61.9849 34.6931 61.9849 34.7407C61.9992 34.7884 61.9563 34.8408 62.0182 34.8884C62.104 34.9313 61.9897 34.9932 62.0516 35.0456C61.9706 35.1076 61.9992 35.16 62.0802 35.2076C62.004 35.2695 62.1087 35.3219 62.1087 35.3791C61.9897 35.4458 62.0802 35.4982 62.1373 35.5601C62.1849 35.6173 62.1278 35.684 62.1611 35.7459C62.1421 35.8126 62.204 35.8698 62.1849 35.9413C62.2469 36.0032 62.2707 36.0699 62.204 36.1414C62.2468 36.2081 62.2183 36.2795 62.223 36.3462C62.2754 36.4129 62.223 36.4844 62.2326 36.5558C62.2611 36.6273 62.0992 36.6988 62.2421 36.775C62.2611 36.8464 62.223 36.9227 62.2421 36.9941C62.223 37.0704 62.204 37.1418 62.2421 37.218C62.104 37.2895 62.1897 37.3705 62.2373 37.4467C62.2754 37.5229 62.2516 37.6039 62.223 37.6754C62.2326 37.7516 62.223 37.8278 62.2088 37.8993C62.2421 37.9755 62.1373 38.0422 62.1849 38.1232C62.2373 38.2042 62.1087 38.2614 62.1611 38.3424C62.1945 38.4186 62.2088 38.49 62.1325 38.552C62.123 38.6234 61.9897 38.6758 62.0944 38.7568C62.1135 38.8283 62.2564 38.9188 62.0563 38.9569C62.0944 39.0332 61.942 39.0713 62.0135 39.1523C61.8611 39.1904 61.9849 39.2761 61.9659 39.3381C61.9278 39.3952 61.8706 39.4429 61.9182 39.5143C61.9706 39.5858 61.8563 39.6239 61.8611 39.6858C61.923 39.7621 61.7325 39.7716 61.8039 39.8478C61.7754 39.8954 61.7896 39.9574 61.7515 40.0003C61.923 40.1003 61.723 40.1003 61.6944 40.1432C61.6515 40.1813 61.7849 40.2718 61.6325 40.2766C61.7563 40.3623 61.623 40.3719 61.5753 40.4004C61.5229 40.429 61.6087 40.5005 61.5182 40.5148C61.5991 40.5862 61.442 40.5719 61.461 40.6148C61.3848 40.6243 61.4325 40.6815 61.4039 40.7053C61.4134 40.7435 61.3944 40.772 61.3467 40.7816C61.3277 40.8054 61.3134 40.8292 61.2943 40.8483C61.1943 40.9721 61.1181 41.0293 61.0705 41.0055L61.1086 41.0102Z" fill="white" stroke="white" stroke-miterlimit="10"/>
</g>
<defs>
<clipPath id="clip0_87_534">
<rect width="36" height="42" fill="white" transform="translate(32 29)"/>
</clipPath>
</defs>
</svg>
