<svg width="76" height="89" viewBox="0 0 76 89" fill="none" xmlns="http://www.w3.org/2000/svg">
<g clip-path="url(#clip0_123_337)">
<path d="M62.03 1.67994C62.03 1.67994 62.26 1.62994 62.71 1.61994C63.16 1.61994 63.84 1.66994 64.71 1.87994C65.58 2.08994 66.63 2.46994 67.76 3.15995C68.88 3.84995 70.06 4.83994 71.12 6.19994C71.47 6.64994 71.82 7.13995 72.13 7.66994C72.45 8.18994 72.74 8.75994 73.01 9.35994C73.29 9.95994 73.53 10.5899 73.74 11.2599C73.95 11.9299 74.11 12.6299 74.23 13.3599C74.28 14.0999 74.42 14.8499 74.51 15.6299C74.6 16.4199 74.61 17.1999 74.48 18.0099C74.46 18.4099 74.42 18.8199 74.39 19.2299C74.36 19.6399 74.34 20.0599 74.31 20.4799C74.27 20.8999 74.23 21.3299 74.2 21.7599C74.18 21.9799 74.17 22.1899 74.14 22.4099C74.11 22.6299 74.08 22.8499 74.06 23.0699C73.86 24.8399 73.31 26.6099 72.89 28.4899C72.76 29.4599 72.35 30.3599 71.93 31.2699C71.71 31.7199 71.48 32.1699 71.29 32.6399C71.08 33.0999 70.88 33.57 70.74 34.0799C69.89 35.9699 68.74 37.7899 67.39 39.5399L67.11 39.8499L66.82 40.1499C66.63 40.3599 66.45 40.5599 66.27 40.7799C66.09 40.9999 65.9 41.1999 65.72 41.4099L65.44 41.7299L65.3 41.8899L65.23 41.9699C65.23 41.9699 65.19 42.0199 65.17 42.0499V42.1499V42.1999V42.2199V42.2699V42.4799C65.17 42.7599 65.17 43.0399 65.18 43.3299C65.18 43.8999 65.18 44.4699 65.18 45.0399C64.84 47.3299 64.85 49.6799 64.88 52.1099C64.38 54.4999 64.24 56.9699 64.33 59.5199C64.1 62.0499 63.66 64.5999 63.42 67.2499C63.05 69.8699 62.64 72.5499 61.93 75.2399C61.72 76.6099 61.41 77.9899 60.96 79.3399C60.51 80.6899 59.94 82.0399 59.16 83.3099C58.87 83.9999 58.51 84.6699 58.02 85.3099C57.78 85.6299 57.5 85.9399 57.17 86.2199C56.84 86.4999 56.46 86.7599 56 86.9399C55.54 87.1199 55 87.2099 54.49 87.1399C53.97 87.0799 53.5 86.8699 53.11 86.6199C52.33 86.1099 51.81 85.45 51.37 84.7899C50.52 83.45 49.86 82.0799 49.27 80.6699C48.69 79.2599 48.21 77.7999 47.93 76.2999C47.19 73.34 46.56 70.3199 46.14 67.2399C45.79 64.1399 45.56 61.0199 45.05 57.8699C44.96 57.0799 44.88 56.2899 44.81 55.4899C44.77 55.0899 44.74 54.6899 44.7 54.2899C44.67 53.9399 44.64 53.5799 44.62 53.2299V53.1799C44.62 53.1799 44.62 53.1399 44.59 53.1499H44.54H44.51L44.26 53.1899C44.06 53.2199 43.85 53.2599 43.65 53.2799L43.03 53.3399C42.62 53.3799 42.21 53.4099 41.8 53.4499C38.53 54.0299 35.13 53.8299 31.82 53.1999L31.12 53.0899H31.07C31.07 53.0899 31.03 53.0699 31.04 53.0899V53.1799L31.02 53.2299V53.2499V53.2799L31 53.4399L30.95 54.0599C30.91 54.4699 30.88 54.8899 30.84 55.3099C30.69 56.9699 30.54 58.6399 30.44 60.3199C30.06 63.6599 29.79 67.0599 29.07 70.4199C28.73 72.0999 28.35 73.7699 27.93 75.4299C27.51 77.09 27.07 78.7299 26.56 80.3799C26.31 81.1999 26 82.0099 25.62 82.7999C25.24 83.59 24.8 84.3599 24.23 85.0899C23.94 85.4499 23.63 85.7999 23.25 86.1299C22.88 86.4499 22.43 86.7399 21.91 86.9299C21.65 87.0199 21.36 87.0799 21.07 87.1099C20.78 87.1299 20.48 87.1099 20.2 87.0399C19.63 86.9199 19.15 86.6499 18.75 86.3599C18.37 86.0299 18.06 85.6699 17.78 85.3099C17.5 84.9499 17.25 84.5799 17.03 84.1999C16.58 83.4499 16.19 82.6899 15.83 81.9299C15.13 80.3899 14.56 78.8299 14.16 77.2299C13.27 74.06 12.85 70.8599 12.23 67.7299C11.71 64.59 11.3 61.4599 11.14 58.3599C10.47 55.2999 10.77 52.1999 10.53 49.1899C10.54 47.6799 10.47 46.1799 10.41 44.6899C10.38 43.9499 10.34 43.2099 10.31 42.4699V42.2299L10.3 42.1699C10.3 42.1499 10.28 42.1399 10.27 42.1299L10.18 42.0299C9.93 41.7499 9.67 41.4699 9.43 41.1899C9.18 40.9099 8.94 40.6199 8.71 40.3299C8.59 40.1799 8.47 40.0399 8.36 39.8899L8.03 39.4399C7.81 39.1399 7.59 38.8399 7.39 38.5299C7.19 38.2199 6.99 37.9099 6.8 37.5899C6.59 37.2799 6.42 36.9599 6.23 36.6399C6.05 36.3199 5.86 36.0099 5.68 35.6899C5.34 35.0399 4.96 34.4199 4.63 33.7799C4.48 33.4499 4.33 33.1199 4.17 32.7999C4.03 32.4699 3.89 32.1399 3.75 31.7999L3.54 31.3099C3.47 31.1399 3.41 30.9799 3.35 30.8099C3.22 30.4799 3.1 30.1399 2.97 29.8099C2.84 29.4799 2.75 29.1299 2.64 28.7999C2.54 28.4599 2.43 28.1199 2.34 27.7799C2.26 27.4399 2.18 27.0899 2.1 26.7499C2.02 26.4099 1.95 26.0699 1.9 25.7199C1.81 25.3799 1.72 25.0499 1.64 24.7099C1.6 24.5399 1.56 24.3699 1.53 24.1999L1.45 23.6899C1.35 23.0099 1.26 22.3199 1.22 21.6399C1.19 21.2999 1.17 20.9599 1.14 20.6199C1.11 20.2799 1.11 19.9399 1.09 19.5999C1.07 19.2599 1.05 18.9299 1.03 18.5899C1.01 18.2599 1 17.9199 0.970004 17.5899C0.970004 17.2599 0.960004 16.9199 0.950004 16.5899C0.940004 16.2599 0.950004 15.9099 0.960004 15.5799C1 14.8999 1.05 14.2299 1.16 13.5599C1.36 12.2299 1.73 10.9399 2.23 9.71994C2.87 8.55995 3.49 7.42994 4.22 6.36994C4.39 6.09994 4.59 5.84995 4.78 5.58994C4.98 5.33994 5.18 5.08994 5.39 4.84994C5.81 4.36994 6.27 3.91995 6.77 3.51994C7.77 2.73994 8.86 2.06994 10.04 1.61994C10.62 1.38994 11.24 1.22994 11.85 1.11994C12.47 1.01994 13.09 0.999945 13.7 1.03994C14.91 1.03994 16.08 1.26994 17.2 1.56994C18.31 1.87994 19.37 2.26994 20.41 2.63994C21.44 3.05994 22.36 3.63995 23.26 4.18994C24.16 4.73994 25.05 5.26994 26.04 5.58994C26.94 6.05994 27.77 6.61994 28.6 7.13994C29.43 7.64994 30.27 8.12994 31.18 8.39994C32.08 8.67994 32.91 9.02995 33.73 9.34995C34.55 9.66994 35.38 9.94994 36.21 10.0699C37.04 10.1899 37.86 10.1999 38.67 10.1299C39.07 10.0999 39.47 10.0399 39.87 9.97994C40.26 9.89994 40.65 9.83994 41.03 9.72994C41.88 9.51994 42.7 9.24994 43.49 8.94994C44.27 8.64994 45.03 8.32994 45.75 7.98994C47.2 7.31994 48.52 6.60994 49.76 5.94994C52.23 4.62994 54.36 3.51994 56.18 2.79994C57.99 2.06994 59.48 1.75994 60.48 1.65994C60.98 1.61994 61.37 1.59994 61.62 1.61994C61.87 1.62994 62 1.64994 62 1.66994C62 1.68994 61.84 1.71994 61.53 1.75994C61.45 1.75994 61.37 1.77994 61.27 1.78994C61.18 1.80994 61.07 1.81994 60.96 1.83994C60.85 1.85994 60.72 1.87994 60.59 1.88994C60.46 1.91994 60.32 1.94994 60.17 1.97994C58.97 2.20994 57.25 2.77994 55.14 3.81994C54.08 4.33994 52.93 4.96994 51.66 5.67994C50.4 6.38994 49.02 7.18994 47.5 7.99994C45.98 8.80994 44.31 9.61995 42.41 10.2699C41.46 10.5899 40.46 10.8499 39.39 10.9999C38.86 11.0799 38.31 11.1299 37.76 11.1399C37.62 11.1399 37.48 11.1399 37.34 11.1399C37.2 11.1399 37.06 11.1399 36.92 11.1299C36.64 11.1199 36.35 11.0799 36.07 11.0499C34.26 10.8099 32.39 10.3599 30.71 9.36994C28.97 8.54994 27.17 7.70994 25.46 6.59994C23.55 5.84994 21.86 4.61995 19.91 3.76994C18.94 3.35994 17.94 2.97994 16.9 2.69994C15.86 2.42994 14.78 2.26994 13.7 2.32994C13.16 2.37994 12.64 2.43994 12.11 2.53994C11.58 2.64994 11.05 2.75994 10.53 2.93994C9.49 3.28994 8.48 3.81994 7.63 4.57994C7.16 4.89994 6.71 5.25994 6.3 5.67994C6.09 5.87994 5.9 6.09995 5.7 6.31994C5.52 6.54994 5.33 6.76994 5.16 7.01994C4.47 7.98994 3.95 9.07994 3.57 10.2299C3.05 11.3199 2.72 12.5199 2.57 13.7499C2.48 14.3599 2.46 14.9899 2.44 15.6099C2.44 15.9299 2.44 16.2299 2.44 16.5599C2.45 16.8799 2.46 17.1999 2.47 17.5299C2.27 20.1299 2.74 22.7799 3.41 25.3699C4.06 27.9699 4.81 30.5999 6.06 33.0799C7.2 35.6099 8.86 37.9099 10.67 40.0999C10.92 40.3499 11.17 40.6099 11.42 40.8599L11.71 41.1699L11.89 41.3599L11.98 41.4599C11.98 41.4599 11.98 41.5399 11.99 41.5799L12.03 42.4099C12.07 43.1399 12.1 43.8799 12.13 44.6199C12.19 46.0999 12.22 47.5899 12.22 49.0899C12.45 52.0799 12.58 55.1199 12.85 58.1799C13.23 61.2299 13.46 64.34 13.96 67.4399C14.22 68.99 14.42 70.5499 14.69 72.1099C14.96 73.6699 15.31 75.2299 15.87 76.7199C16.31 78.2399 16.79 79.7599 17.4 81.2099C17.71 81.9299 18.05 82.6299 18.45 83.2799C18.85 83.9199 19.31 84.5099 19.83 84.8899C20.08 85.0899 20.33 85.2199 20.58 85.2799C20.82 85.3399 21.05 85.3199 21.3 85.2399C21.81 85.0599 22.35 84.5699 22.79 83.9799C23.24 83.39 23.63 82.7 23.97 81.9799C24.31 81.2599 24.6 80.5099 24.86 79.7299C25.55 78.2499 26.03 76.6499 26.41 75.0299C26.78 73.3999 27.05 71.7399 27.29 70.0699C27.8 66.7399 28.27 63.4199 28.65 60.1099C28.8 58.4499 28.94 56.7999 29.07 55.1499C29.1 54.7399 29.13 54.3199 29.16 53.9099C29.2 53.3699 29.24 52.8299 29.27 52.2899L29.35 51.1199V50.9799L29.36 50.9399C29.36 50.9399 29.38 50.9399 29.39 50.9399H29.46L29.75 50.9999L30.33 51.0999C30.91 51.1999 31.5 51.2999 32.08 51.4099C32.48 51.4599 32.88 51.4899 33.28 51.5399C33.68 51.5799 34.08 51.6399 34.48 51.6699C34.88 51.6999 35.28 51.7399 35.68 51.7699L35.98 51.7999H36.28L36.88 51.8399C38.47 51.9299 40.07 51.8599 41.64 51.6699C42.03 51.6099 42.42 51.5499 42.81 51.4999L43.39 51.4199C43.58 51.3899 43.78 51.3599 43.97 51.3299C44.64 51.2199 45.32 51.1099 45.99 50.9999L46.27 50.9599H46.34L46.36 50.9499C46.36 50.9499 46.36 50.9599 46.36 50.9699V51.0099V51.1499L46.39 51.7199L46.45 52.8499C46.47 53.2899 46.49 53.7299 46.51 54.1699C46.53 54.5699 46.56 54.9599 46.58 55.3599C46.64 56.1499 46.7 56.9399 46.8 57.7199C47.16 60.8499 47.55 63.9299 47.85 66.9899C48.3 70.0199 48.59 73.0599 49.57 75.8799C49.97 77.3099 50.48 78.6899 51.02 80.0199C51.56 81.3499 52.12 82.63 52.72 83.8299C53.12 84.3499 53.56 84.8299 54.01 85.1199C54.24 85.2599 54.46 85.3599 54.68 85.3899C54.9 85.4299 55.12 85.3899 55.35 85.3199C55.82 85.1599 56.31 84.7399 56.71 84.2499C57.12 83.7499 57.46 83.1699 57.73 82.5599C58.49 81.4399 58.99 80.1399 59.39 78.8299C59.79 77.52 60.08 76.1899 60.4 74.8799C61.09 72.2599 61.66 69.6499 61.92 67.0399C62.17 64.4299 62.68 61.9099 62.88 59.3999C62.95 56.8799 63.53 54.4599 63.49 52.0399C63.68 49.6399 63.72 47.2899 63.86 45.0099C63.78 44.4399 63.75 43.8699 63.75 43.2999C63.75 43.0199 63.75 42.7399 63.77 42.4599L63.79 41.9099L63.81 41.5299C63.81 41.5299 63.81 41.4999 63.83 41.4899L63.86 41.4599L63.93 41.3899L64.06 41.2499L64.31 40.9899L64.46 40.8499L64.75 40.5699C64.94 40.3799 65.14 40.1999 65.32 39.9999C65.5 39.7999 65.69 39.6099 65.87 39.4099L66.14 39.1099C66.23 39.0099 66.31 38.8999 66.39 38.7999C67.06 37.9699 67.6 37.0699 68.11 36.1799C68.23 35.9499 68.36 35.7299 68.49 35.5099C68.62 35.2899 68.75 35.0699 68.87 34.8499C69.12 34.4099 69.4 33.9899 69.68 33.5699C69.83 33.0899 70 32.6199 70.19 32.1699C70.36 31.7099 70.55 31.2699 70.76 30.8299C71.13 29.9399 71.54 29.0799 71.83 28.1899C72.45 26.4199 72.64 24.6199 73.04 22.9399C73.04 22.7199 73.06 22.5099 73.08 22.2899C73.1 22.0799 73.11 21.8599 73.14 21.6499C73.19 21.2299 73.25 20.8199 73.32 20.4099C73.38 19.9999 73.43 19.5899 73.47 19.1899C73.51 18.7899 73.55 18.3899 73.54 17.9899C73.62 17.1999 73.66 16.4199 73.62 15.6699C73.58 14.9199 73.48 14.2099 73.38 13.5099C73.23 12.8199 73.08 12.1499 72.89 11.5099C72.7 10.8699 72.51 10.2499 72.29 9.65994C72.04 9.07994 71.78 8.52995 71.49 8.01995C71.2 7.50994 70.89 7.02994 70.57 6.58994C69.6 5.25994 68.5 4.26994 67.45 3.56994C66.4 2.85994 65.4 2.44994 64.58 2.19994C63.75 1.94994 63.09 1.84994 62.65 1.78994C62.21 1.73994 61.98 1.70994 61.98 1.67994H62.03Z" fill="white" stroke="white" stroke-width="2" stroke-miterlimit="10"/>
<path d="M65.41 27C65.31 26.96 65.29 26.72 65.34 26.33C65.34 26.27 65.36 26.2 65.37 26.12C65.37 26.04 65.37 25.96 65.41 25.89C65.58 25.87 65.22 25.64 65.46 25.64C65.56 25.58 65.52 25.47 65.51 25.36C65.49 25.25 65.66 25.2 65.56 25.06C65.32 24.87 65.93 24.95 65.62 24.73C65.58 24.6 65.64 24.5 65.69 24.39C65.94 24.34 65.76 24.16 65.75 24.02C66.03 23.96 65.96 23.81 65.81 23.63C66.19 23.59 66.17 23.44 65.88 23.22C65.9 23.08 66.08 22.97 65.95 22.8C65.95 22.65 65.91 22.49 66.01 22.35C65.8 22.15 65.84 22.01 66.07 21.89C65.84 21.69 65.98 21.56 66.13 21.41C66.29 21.27 65.95 21.05 66.18 20.92C66.22 20.76 66.17 20.58 66.23 20.41C66.36 20.25 66.5 20.09 66.27 19.89C66.22 19.71 66.15 19.52 66.31 19.36C66.05 19.16 66.19 18.99 66.35 18.82C66.31 18.63 66.52 18.46 66.37 18.27C66.42 18.08 66.27 17.89 66.4 17.7C66.5 17.51 66.57 17.32 66.42 17.14C66.25 16.95 66.5 16.77 66.43 16.58C66.69 16.4 66.35 16.21 66.44 16.03C66.41 15.85 66.58 15.67 66.44 15.49C66.39 15.31 66.34 15.14 66.44 14.96C66.04 14.8 66.53 14.61 66.44 14.45C66.6 14.27 66.4 14.12 66.44 13.95C66.36 13.79 66.6 13.61 66.44 13.46C66.46 13.3 66.29 13.15 66.44 12.99C66.23 12.85 66.59 12.67 66.44 12.54C66.43 12.39 66.4 12.25 66.44 12.1C66.73 11.93 66.47 11.81 66.44 11.68C66.46 11.54 66.24 11.43 66.44 11.28C66.45 11.15 66.57 11.01 66.44 10.9C66.38 10.78 66.86 10.61 66.44 10.54C66.35 10.43 66.73 10.28 66.44 10.2C66.17 10.13 66.44 9.99005 66.44 9.89005C66.44 9.79005 66.44 9.69005 66.44 9.60005C66.47 8.77005 66.55 8.28005 66.72 8.26005C66.9 8.24005 67.16 8.79005 67.42 9.77005C67.45 9.87005 67.67 9.95005 67.5 10.08C67.51 10.19 67.69 10.28 67.58 10.41C67.88 10.49 67.66 10.64 67.66 10.77C67.69 10.89 67.61 11.03 67.74 11.15C67.92 11.26 67.69 11.43 67.82 11.55C67.66 11.71 67.71 11.84 67.89 11.97C67.73 12.13 67.95 12.26 67.96 12.41C67.71 12.58 67.9 12.72 68.02 12.87C68.13 13.02 68 13.19 68.08 13.35C68.04 13.52 68.17 13.68 68.13 13.85C68.26 14.01 68.32 14.18 68.17 14.37C68.26 14.54 68.2 14.72 68.21 14.9C68.32 15.08 68.21 15.26 68.23 15.45C68.29 15.63 67.95 15.82 68.25 16.01C68.29 16.2 68.21 16.39 68.25 16.58C68.21 16.77 68.17 16.97 68.25 17.16C67.96 17.35 68.14 17.55 68.24 17.75C68.31 17.95 68.26 18.15 68.21 18.34C68.23 18.54 68.21 18.73 68.17 18.92C68.24 19.12 68.01 19.29 68.11 19.49C68.21 19.69 67.94 19.85 68.05 20.05C68.12 20.24 68.15 20.43 67.98 20.6C67.96 20.78 67.67 20.92 67.89 21.13C67.92 21.31 68.22 21.54 67.8 21.65C67.88 21.84 67.55 21.96 67.69 22.15C67.37 22.26 67.61 22.47 67.57 22.63C67.48 22.78 67.36 22.91 67.46 23.09C67.57 23.27 67.31 23.37 67.33 23.53C67.46 23.72 67.04 23.77 67.19 23.95C67.12 24.08 67.15 24.23 67.06 24.34C67.41 24.58 66.99 24.6 66.92 24.71C66.83 24.82 67.1 25.03 66.77 25.05C67.02 25.25 66.74 25.29 66.63 25.37C66.51 25.45 66.68 25.62 66.49 25.66C66.66 25.83 66.32 25.81 66.35 25.92C66.18 25.96 66.28 26.09 66.21 26.15C66.22 26.25 66.18 26.32 66.08 26.36C66.04 26.42 66 26.48 65.96 26.54C65.72 26.87 65.55 27.02 65.45 26.97L65.41 27Z" fill="white" stroke="white" stroke-miterlimit="10"/>
<path d="M61.12 25.2099C61.02 25.1699 60.98 24.9599 61.01 24.6399C61.01 24.5899 61.01 24.53 61.03 24.4699C61.03 24.4099 61.02 24.34 61.05 24.28C61.21 24.28 60.84 24.0599 61.08 24.07C61.17 24.03 61.13 23.93 61.11 23.84C61.09 23.75 61.25 23.72 61.14 23.59C60.89 23.42 61.49 23.5199 61.18 23.33C61.13 23.22 61.18 23.1399 61.23 23.0499C61.47 23.0199 61.29 22.86 61.27 22.75C61.55 22.72 61.46 22.58 61.31 22.44C61.69 22.42 61.66 22.3 61.36 22.11C61.37 22 61.54 21.92 61.41 21.77C61.41 21.65 61.36 21.5199 61.45 21.41C61.24 21.24 61.27 21.13 61.49 21.04C61.26 20.87 61.39 20.7699 61.53 20.66C61.69 20.55 61.34 20.37 61.56 20.26C61.59 20.13 61.54 19.98 61.6 19.85C61.72 19.73 61.86 19.6 61.63 19.43C61.58 19.28 61.51 19.13 61.66 19C61.4 18.83 61.53 18.7 61.69 18.5599C61.65 18.41 61.85 18.27 61.71 18.11C61.76 17.96 61.6 17.8 61.73 17.66C61.82 17.51 61.9 17.36 61.74 17.2C61.57 17.05 61.82 16.9 61.75 16.75C62.01 16.6 61.67 16.4499 61.75 16.3099C61.72 16.1599 61.89 16.02 61.75 15.88C61.7 15.74 61.65 15.6 61.75 15.46C61.35 15.33 61.84 15.18 61.75 15.05C61.91 14.91 61.71 14.78 61.75 14.65C61.67 14.5199 61.92 14.38 61.75 14.26C61.77 14.13 61.61 14.01 61.75 13.88C61.54 13.77 61.9 13.62 61.75 13.51C61.75 13.39 61.72 13.2699 61.75 13.15C62.05 13.0099 61.78 12.92 61.75 12.81C61.77 12.7 61.55 12.61 61.75 12.49C61.76 12.38 61.89 12.27 61.75 12.18C61.69 12.09 62.18 11.93 61.75 11.89C61.67 11.81 62.04 11.67 61.75 11.62C61.49 11.57 61.76 11.45 61.76 11.37C61.76 11.29 61.76 11.21 61.78 11.13C61.83 10.46 61.93 10.05 62.09 10.03C62.27 10.01 62.51 10.45 62.75 11.24C62.77 11.32 63 11.38 62.82 11.49C62.82 11.58 63.01 11.65 62.89 11.76C63.19 11.82 62.96 11.95 62.96 12.05C62.99 12.15 62.9 12.26 63.03 12.36C63.21 12.4499 62.97 12.58 63.1 12.6899C62.93 12.82 62.99 12.93 63.16 13.03C63 13.16 63.22 13.27 63.22 13.39C62.97 13.53 63.16 13.64 63.28 13.77C63.38 13.89 63.26 14.03 63.33 14.16C63.29 14.3 63.42 14.42 63.38 14.57C63.51 14.7 63.56 14.84 63.42 14.99C63.51 15.13 63.45 15.28 63.46 15.42C63.57 15.56 63.46 15.7099 63.48 15.86C63.54 16.01 63.2 16.16 63.5 16.32C63.54 16.47 63.46 16.63 63.5 16.78C63.46 16.94 63.42 17.09 63.5 17.25C63.21 17.4 63.39 17.57 63.49 17.7299C63.57 17.8899 63.52 18.0599 63.46 18.2099C63.48 18.3699 63.46 18.53 63.43 18.68C63.5 18.84 63.28 18.9799 63.38 19.15C63.49 19.32 63.22 19.44 63.33 19.61C63.4 19.77 63.43 19.9199 63.27 20.0499C63.25 20.1999 62.97 20.3099 63.19 20.4799C63.23 20.6299 63.53 20.82 63.11 20.9C63.19 21.0599 62.87 21.1399 63.02 21.3099C62.7 21.3899 62.96 21.57 62.92 21.7C62.84 21.82 62.72 21.92 62.82 22.07C62.93 22.2199 62.69 22.3 62.7 22.43C62.83 22.59 62.43 22.61 62.58 22.77C62.52 22.87 62.55 23 62.47 23.09C62.83 23.3 62.41 23.2999 62.35 23.3899C62.26 23.4699 62.54 23.66 62.22 23.67C62.48 23.85 62.2 23.87 62.1 23.93C61.99 23.99 62.17 24.14 61.98 24.17C62.15 24.32 61.82 24.2899 61.86 24.3799C61.7 24.4 61.8 24.5199 61.74 24.57C61.76 24.65 61.72 24.7099 61.62 24.7299C61.58 24.78 61.55 24.83 61.51 24.87C61.3 25.13 61.14 25.25 61.04 25.2L61.12 25.2099Z" fill="white" stroke="white" stroke-miterlimit="10"/>
</g>
<defs>
<clipPath id="clip0_123_337">
<rect width="75.59" height="88.16" fill="white"/>
</clipPath>
</defs>
</svg>
